<?xml version="1.0" encoding="UTF-8" standalone="no"?>
<svg
   xmlns:dc="http://purl.org/dc/elements/1.1/"
   xmlns:cc="http://creativecommons.org/ns#"
   xmlns:rdf="http://www.w3.org/1999/02/22-rdf-syntax-ns#"
   xmlns:svg="http://www.w3.org/2000/svg"
   xmlns="http://www.w3.org/2000/svg"
   xmlns:sodipodi="http://sodipodi.sourceforge.net/DTD/sodipodi-0.dtd"
   xmlns:inkscape="http://www.inkscape.org/namespaces/inkscape"
   version="1.1"
   id="svg120"
   width="511.96823"
   height="383.97617"
   viewBox="0 0 511.96823 383.97617"
   sodipodi:docname="email.svg"
   inkscape:version="1.0.2 (e86c870879, 2021-01-15)">
  <metadata
     id="metadata126">
    <rdf:RDF>
      <cc:Work
         rdf:about="">
        <dc:format>image/svg+xml</dc:format>
        <dc:type
           rdf:resource="http://purl.org/dc/dcmitype/StillImage" />
        <dc:title></dc:title>
      </cc:Work>
    </rdf:RDF>
  </metadata>
  <defs
     id="defs124" />
  <sodipodi:namedview
     pagecolor="#ffffff"
     bordercolor="#666666"
     borderopacity="1"
     objecttolerance="10"
     gridtolerance="10"
     guidetolerance="10"
     inkscape:pageopacity="0"
     inkscape:pageshadow="2"
     inkscape:window-width="1916"
     inkscape:window-height="1044"
     id="namedview122"
     showgrid="false"
     inkscape:zoom="1.2277694"
     inkscape:cx="179.11235"
     inkscape:cy="179.12054"
     inkscape:window-x="1920"
     inkscape:window-y="16"
     inkscape:window-maximized="0"
     inkscape:current-layer="g128" />
  <g
     inkscape:groupmode="layer"
     inkscape:label="Image"
     id="g128"
     transform="translate(32.888817,-5.75721)">
    <path
       style="fill:#000000;stroke-width:3.99973"
       d="M -32.888817,197.74528 V 5.75721 H 223.0953 479.0794 V 197.74528 389.73337 H 223.0953 -32.888817 Z M 371.87074,306.7385 c -24.26247,-25.84837 -52.27575,-54.93525 -62.25171,-64.63752 l -18.13816,-17.64043 -16.403,14.81914 c -19.42542,17.54969 -30.90748,22.46162 -52.50591,22.46162 -19.71208,0 -28.91107,-4.54448 -49.72785,-24.56661 L 156.59082,221.54184 93.500421,287.63873 30.410043,353.7356 H 223.19718 415.98431 Z M 68.089531,132.7647 3.1089486,67.784118 V 197.74528 327.70646 L 68.089531,262.72588 133.07011,197.74528 Z M 443.08162,198.79211 V 71.846887 l -63.9967,63.902963 -63.99673,63.90296 62.94988,63.04226 c 34.62246,34.67325 63.42099,63.04229 63.99675,63.04229 0.57574,0 1.0468,-57.12538 1.0468,-126.94525 z M 327.08883,135.74913 421.01916,41.754976 H 225.73377 30.44835 l 88.97258,91.877184 c 48.93491,50.53243 90.93056,92.68773 93.32366,93.6784 14.86009,6.15162 24.05706,-1.21288 114.34424,-91.56143 z"
       id="path132"
       inkscape:export-xdpi="96"
       inkscape:export-ydpi="96" />
  </g>
</svg>
