<?xml version="1.0" encoding="UTF-8" standalone="no"?>
<svg
   xmlns:dc="http://purl.org/dc/elements/1.1/"
   xmlns:cc="http://creativecommons.org/ns#"
   xmlns:rdf="http://www.w3.org/1999/02/22-rdf-syntax-ns#"
   xmlns:svg="http://www.w3.org/2000/svg"
   xmlns="http://www.w3.org/2000/svg"
   xmlns:sodipodi="http://sodipodi.sourceforge.net/DTD/sodipodi-0.dtd"
   xmlns:inkscape="http://www.inkscape.org/namespaces/inkscape"
   version="1.1"
   id="svg62"
   width="512"
   height="511.99997"
   viewBox="0 0 512 511.99997"
   sodipodi:docname="sun.svg"
   inkscape:version="1.0.2 (e86c870879, 2021-01-15)">
  <metadata
     id="metadata68">
    <rdf:RDF>
      <cc:Work
         rdf:about="">
        <dc:format>image/svg+xml</dc:format>
        <dc:type
           rdf:resource="http://purl.org/dc/dcmitype/StillImage" />
        <dc:title></dc:title>
      </cc:Work>
    </rdf:RDF>
  </metadata>
  <defs
     id="defs66" />
  <sodipodi:namedview
     pagecolor="#ffffff"
     bordercolor="#666666"
     borderopacity="1"
     objecttolerance="10"
     gridtolerance="10"
     guidetolerance="10"
     inkscape:pageopacity="0"
     inkscape:pageshadow="2"
     inkscape:window-width="1916"
     inkscape:window-height="1044"
     id="namedview64"
     showgrid="false"
     inkscape:zoom="1.3745932"
     inkscape:cx="186.90323"
     inkscape:cy="250.442"
     inkscape:window-x="0"
     inkscape:window-y="16"
     inkscape:window-maximized="0"
     inkscape:current-layer="g70" />
  <g
     inkscape:groupmode="layer"
     inkscape:label="Image"
     id="g70"
     transform="translate(96.473754,-2.0198958)">
    <path
       style="fill:#040404;stroke:none;stroke-width:1.00086"
       d="m 156.75885,2.2855186 c -6.47558,1.1779199 -11.91726,6.1774161 -13.65675,12.5385164 -3.16172,11.557306 -1.35617,25.152959 -1.35617,37.031738 0,8.458548 -0.99986,17.889833 1.85159,26.022302 2.77739,7.918487 11.08854,12.018002 19.16649,10.796253 6.39351,-0.966927 11.69007,-5.598699 13.4686,-11.797111 3.73021,-12.99864 1.54433,-28.637843 1.54433,-42.036026 0,-7.1178 0.80168,-15.282399 -2.00673,-22.018871 C 172.67555,5.4003984 164.68466,0.843731 156.75885,2.2855186 M -12.386742,72.345533 c -10.876053,1.957577 -17.654293,14.3482 -12.554005,24.548841 7.290496,14.580496 26.7826553,28.797676 38.576405,39.994286 4.684031,4.4468 10.283861,7.98783 17.01464,6.51256 C 41.466616,141.0302 48.07631,129.12099 42.972903,118.91325 40.420718,113.80887 35.623585,109.8745 31.65116,105.90209 21.54347,95.79383 3.9062816,69.41312 -12.386742,72.345533 m 338.291162,0.06106 c -6.74981,1.479469 -11.33876,6.803631 -16.01378,11.476637 -10.22681,10.222459 -28.16323,22.55032 -33.8011,36.03088 -4.84716,11.59094 5.02633,25.60193 17.78731,23.67728 14.59857,-2.20288 29.09904,-23.75135 39.03359,-33.68586 4.15659,-4.15656 9.73939,-8.42612 12.00132,-14.012007 4.92926,-12.176336 -5.82999,-26.375305 -19.00734,-23.48693 M 157.75971,129.38622 c -27.44261,2.40106 -52.58025,8.3902 -75.064604,25.45681 -13.334483,10.12168 -24.621194,22.78753 -33.228605,37.13282 -53.9793446,89.9671 21.089158,203.85872 124.306989,193.99626 64.23429,-6.13726 114.75876,-63.89676 114.75876,-127.93964 0,-67.01443 -60.24784,-134.81854 -130.77254,-128.64625 m 2.00173,35.13711 c 81.05075,0 124.73234,101.46995 67.0537,159.56475 -8.10197,8.16098 -17.45002,14.73562 -28.02011,19.29653 -12.44973,5.37261 -25.4489,8.15699 -39.03359,8.15699 -81.050769,0 -124.73237,-101.46996 -67.053709,-159.56475 8.385199,-8.44623 18.062539,-15.08292 29.020969,-19.73391 12.11343,-5.1414 24.8604,-7.71961 38.03274,-7.71961 M -78.443595,240.4454 c -15.733333,2.27996 -26.576695,23.85444 -8.993066,32.91221 6.496021,3.34586 14.935487,2.6903 22.004266,2.6903 13.901461,0 29.434432,1.92165 43.037034,-1.30212 14.8308694,-3.51402 17.8578774,-24.99142 3.999552,-32.03846 -6.532224,-3.32185 -14.919445,-2.6903 -22.015061,-2.6903 -12.41777,0 -25.735146,-1.35318 -38.032725,0.42837 m 425.366105,0 c -15.89269,2.28297 -27.05729,23.73133 -9.00375,32.91221 6.53163,3.32184 14.91885,2.6903 22.01493,2.6903 13.56871,0 28.74277,1.8816 42.03621,-1.12499 15.88467,-3.59306 18.56597,-25.08448 4.00343,-32.44778 -6.22935,-3.1497 -14.26428,-2.45811 -21.01809,-2.45811 -12.42368,0 -25.72815,-1.33914 -38.03273,0.42837 M 24.645136,372.66372 c -14.297297,3.13367 -28.0516543,23.51513 -38.032732,33.49569 -4.156863,4.15657 -9.73969,8.42622 -12.001023,14.01201 -4.778624,11.80412 5.139733,25.61796 18.0062074,23.67731 6.76590929,-1.02088 11.4128063,-6.07321 16.0137684,-10.66615 C 19.126395,422.70559 37.654326,409.96869 43.433306,396.15084 48.439617,384.1796 37.713387,369.79927 24.645136,372.66372 m 264.227414,-0.0621 c -11.50191,2.03374 -18.04753,13.84787 -12.96116,24.55003 2.63226,5.53777 7.70063,9.75236 11.9603,14.01201 10.07167,10.07264 27.57173,36.22406 44.0379,32.49785 10.84134,-2.4531 17.05467,-14.40234 12.01034,-24.49098 -7.28328,-14.56649 -25.41288,-27.74579 -37.03187,-39.01845 -4.96729,-4.81912 -10.75826,-8.83256 -18.01551,-7.55046 m -134.11543,55.21431 c -5.55178,1.60539 -9.87249,5.817 -11.46687,11.37175 -3.7302,12.99814 -1.54432,28.63754 -1.54432,42.03603 0,7.1181 -0.8017,15.28211 2.00672,22.01888 3.41193,8.18301 12.5428,12.59479 21.01309,10.06562 5.57379,-1.66443 10.12572,-6.47554 11.65503,-12.06733 3.479,-12.71791 1.35617,-27.95198 1.35617,-41.03518 0,-7.45638 0.76365,-15.97971 -2.22992,-23.01872 -3.35489,-7.88977 -12.67891,-11.71505 -20.7899,-9.37105 z"
       id="path90" />
  </g>
</svg>
