<?xml version="1.0" encoding="UTF-8" standalone="no"?>
<!-- Created with Inkscape (http://www.inkscape.org/) -->

<svg
   version="1.1"
   id="svg3396"
   width="452.08859"
   height="500.1792"
   viewBox="0 0 452.08859 500.1792"
   sodipodi:docname="ty3.svg"
   inkscape:version="1.1.2 (0a00cf5339, 2022-02-04)"
   xmlns:inkscape="http://www.inkscape.org/namespaces/inkscape"
   xmlns:sodipodi="http://sodipodi.sourceforge.net/DTD/sodipodi-0.dtd"
   xmlns="http://www.w3.org/2000/svg"
   xmlns:svg="http://www.w3.org/2000/svg">
  <defs
     id="defs3400" />
  <sodipodi:namedview
     id="namedview3398"
     pagecolor="#ffffff"
     bordercolor="#666666"
     borderopacity="1.0"
     inkscape:pageshadow="2"
     inkscape:pageopacity="0.0"
     inkscape:pagecheckerboard="0"
     showgrid="false"
     inkscape:zoom="0.10784647"
     inkscape:cx="2661.1906"
     inkscape:cy="2406.1984"
     inkscape:window-width="2560"
     inkscape:window-height="1570"
     inkscape:window-x="0"
     inkscape:window-y="0"
     inkscape:window-maximized="1"
     inkscape:current-layer="g3402" />
  <g
     inkscape:groupmode="layer"
     inkscape:label="Image"
     id="g3402"
     transform="translate(135.63658,34.684373)">
    <path
       style="fill:#000000;stroke-width:0.0849584"
       d="m 115.19058,465.45212 c -44.665191,-0.18934 -75.449891,-0.59723 -83.556709,-1.10704 -5.725935,-0.36013 -11.352114,-1.99906 -15.771736,-4.59442 -3.813534,-2.23943 -7.1576015,-5.40821 -9.6461967,-9.14056 -4.0556068,-6.08248 -6.29369558,-13.67225 -6.95971007,-23.60163 -0.12433655,-1.85376 -0.12411566,-7.51099 0,-9.60033 0.2116394,-3.55192 0.60398096,-7.42436 0.9941755,-9.8127 C 3.0291853,390.58684 14.505504,378.75873 30.33414,376.58952 c 1.863666,-0.2554 3.232331,-0.34377 5.325983,-0.34388 1.032892,-6e-5 3.569729,-0.0254 5.637404,-0.0563 l 3.759417,-0.0562 V 353.20813 330.28318 H 10.096511 -24.863918 l -8.83e-4,4.73644 c -8.84e-4,2.60504 -0.03927,5.19521 -0.08617,5.75594 -0.847106,10.12552 -6.605695,21.65835 -13.555931,27.14872 -1.320648,1.04326 -2.631176,1.76475 -4.67645,2.57456 -9.685552,3.83507 -29.875689,5.46435 -49.604562,4.00296 -17.067636,-1.26426 -26.225786,-3.77282 -32.360096,-8.86393 -3.84981,-3.19511 -7.27722,-8.67493 -8.3236,-13.30795 -1.06148,-4.6999 -1.55807,-13.38323 -1.83902,-32.1568 -0.214,-14.30136 -0.26905,-30.35202 -0.31191,-90.9481 -0.0616,-87.15469 0.0708,-117.98647 0.56989,-132.620247 0.38892,-11.40473 0.96455,-16.510365 2.25175,-19.972187 0.39174,-1.053581 1.55984,-3.361156 2.29731,-4.538348 2.33183,-3.722211 6.0088,-7.678591 8.95645,-9.637057 1.90688,-1.26696 4.46113,-2.286215 8.11101,-3.236646 11.0929,-2.888593 30.07727,-4.044289 47.367671,-2.88357 12.87475,0.86429 22.700152,2.962638 26.787676,5.720877 5.946623,4.012737 12.130294,15.062128 13.905044,24.846427 0.437093,2.409761 0.448579,2.606535 0.487924,8.362506 l 0.03733,5.458695 34.93265,-0.0213 34.932659,-0.0213 0.02138,-22.960041 0.02138,-22.960041 h -4.795679 c -4.893886,0 -6.065309,-0.05004 -8.160803,-0.348628 C 24.741832,53.365465 16.183051,49.424798 10.521636,44.478404 9.6352309,43.703948 7.952917,42.02758 7.328725,41.296784 3.1040302,36.35054 0.50387446,27.962018 -0.45305088,16.19154 -0.64250452,13.861175 -0.66978832,6.0146207 -0.496477,3.7026377 0.2546359,-6.3170541 2.1209078,-13.420243 5.4634515,-18.981287 10.349306,-27.109984 18.467813,-31.776881 30.276511,-33.24499 c 6.610486,-0.821845 44.208506,-1.303125 111.081239,-1.421914 69.43412,-0.123338 131.19398,0.418355 142.30552,1.248159 4.09803,0.306038 9.01312,1.421165 12.74382,2.89129 1.29392,0.509906 3.71693,1.727642 4.87424,2.449656 6.12474,3.821094 10.21252,9.676835 12.58218,18.023903 1.20098,4.2303124 1.91896,9.10828803 2.39991,16.3052894 0.14248,2.132038 0.14112,9.5593096 -0.002,11.3844416 -0.32641,4.159568 -0.80464,7.299307 -1.59383,10.462756 -3.3731,13.521292 -11.68706,21.797118 -25.32779,25.211644 -3.11925,0.7808 -5.02709,1.070103 -12.09081,1.833422 -2.82699,0.305485 -5.26424,0.575862 -5.4161,0.60084 l -0.27612,0.04541 V 215.46827 c 0,127.66788 0.0213,159.68517 0.1062,159.71239 0.0584,0.0187 2.6677,0.30687 5.79842,0.64035 6.23352,0.66397 8.53685,0.93449 10.15254,1.19236 9.12156,1.45585 13.12225,3.74059 20.00381,11.42393 3.31474,3.70101 5.51763,8.0209 6.97518,13.67832 1.32323,5.13639 1.86246,10.12633 1.85906,17.2041 -0.003,4.4469 -0.17918,8.01716 -0.59394,11.97914 -2.05609,19.63643 -11.42319,30.07169 -29.39105,32.74259 -1.71723,0.25526 -2.94186,0.35629 -5.7347,0.47314 -9.06348,0.37917 -28.6135,0.65837 -59.93824,0.85611 -18.29976,0.11548 -85.36817,0.16721 -105.60344,0.0814 z m 105.43352,-21.6642 c 37.15754,-0.1385 57.04661,-0.41072 62.48699,-0.85536 2.36709,-0.19341 5.02104,-1.03777 6.56833,-2.08967 1.1851,-0.80566 2.31386,-2.21173 2.94655,-3.67037 1.29128,-2.97718 1.82898,-6.79409 2.126,-15.09166 0.0501,-1.40181 0.18504,-3.86192 0.29965,-5.46691 0.36838,-5.15543 0.25853,-6.78127 -0.57347,-8.48961 -0.57849,-1.18764 -1.78167,-2.31721 -3.25349,-3.05439 -4.11845,-2.06272 -12.14005,-3.11906 -27.90891,-3.67519 -10.97534,-0.38708 -25.81259,-0.55055 -61.67988,-0.67961 -12.73316,-0.0458 -33.91332,-0.12672 -47.06702,-0.17981 -26.63914,-0.10751 -81.495792,-0.0564 -90.013555,0.0838 -20.352543,0.3351 -29.192679,0.76786 -33.375052,1.63382 -0.68733,0.14231 -9.003685,2.78564 -9.102133,2.89309 -0.01414,0.0154 -0.170608,3.81295 -0.347718,8.43894 -0.434827,11.35729 -0.432203,15.76714 0.01202,20.17766 0.166358,1.65182 0.432754,3.21419 0.683367,4.00792 0.174994,0.55425 0.267585,0.70754 0.617172,1.02186 1.35133,1.21496 7.211829,3.15363 10.460024,3.46018 10.776835,1.01709 109.288605,1.8254 187.121135,1.53529 z m -22.38657,-68.30579 c 23.85422,-0.1397 45.17775,-0.25442 47.38561,-0.25494 l 4.01429,-8.8e-4 V 215.50424 55.782219 H 157.79727 65.957111 l 0.0031,0.191159 c 0.01268,0.85068 -1.038949,67.084992 -1.07577,67.754422 l -0.0479,0.87082 h -43.83042 -43.830425 v 90.86314 90.86313 H 21.05677 64.937847 l 0.0022,16.46072 c 0.0035,28.11899 0.210884,40.43622 0.810885,48.19272 0.202914,2.62319 0.413113,3.83879 0.681604,3.94182 0.409222,0.15704 3.961201,0.3406 9.167679,0.47378 18.863451,0.48254 51.319035,0.50588 122.637625,0.0882 z m 6.62676,-108.577 c 0,-24.43895 0.0121,-26.8479 0.13455,-26.8479 0.27277,0 3.75978,0.60956 4.63043,0.80944 4.27535,0.98151 8.0804,2.78676 11.37714,5.39768 1.10485,0.87502 3.31861,3.07922 4.17583,4.15782 2.56248,3.22422 4.89422,7.86488 5.37872,10.70477 0.23638,1.38563 0.33187,4.74834 0.22618,7.96594 -0.1027,3.12655 -0.16415,3.77613 -0.48417,5.11768 -0.38808,1.62692 -1.62447,4.35417 -2.88865,6.37189 -3.4831,5.55925 -8.61302,9.79492 -14.20748,11.73084 -1.94859,0.6743 -3.41109,0.95824 -6.30354,1.22383 -0.771,0.0708 -1.54519,0.14834 -1.72041,0.17232 l -0.3186,0.0436 z M 35.05593,293.49262 c -1.474965,-0.121 -4.037464,-0.77343 -5.883922,-1.4981 -6.783342,-2.6622 -11.823626,-7.31229 -14.994175,-13.83339 -1.70799,-3.51293 -1.965131,-5.1786 -1.888714,-12.23403 0.04522,-4.17389 0.07592,-4.56445 0.472413,-6.00969 0.388653,-1.41665 1.767682,-4.41754 2.899381,-6.30929 3.791246,-6.33748 9.808834,-10.75947 17.119898,-12.58047 0.964856,-0.24032 4.955628,-0.97042 5.304393,-0.97042 0.06381,0 0.09047,7.8895 0.09047,26.76194 v 26.76193 l -1.168181,-0.0121 c -0.642494,-0.007 -1.520705,-0.041 -1.951564,-0.0764 z m 49.42214,-3.68977 c -0.07009,-0.0172 -0.433289,-0.0777 -0.807107,-0.13443 -1.815036,-0.27541 -5.600552,-1.49423 -7.901143,-2.54396 -0.280361,-0.12792 -0.700905,-0.31888 -0.934541,-0.42434 -0.577991,-0.26093 -2.952954,-1.44594 -3.058506,-1.52607 -0.04673,-0.0355 -0.467275,-0.26801 -0.934546,-0.51675 -0.46727,-0.24874 -1.048464,-0.57917 -1.29154,-0.73429 -0.243067,-0.15514 -0.462265,-0.28205 -0.487102,-0.28205 -0.02483,0 -0.787819,-0.47384 -1.69554,-1.05296 -3.666879,-2.33946 -6.607124,-4.57637 -9.269596,-7.0522 -1.929016,-1.79379 -3.067479,-2.74541 -4.545279,-3.79935 -1.391858,-0.99265 -2.728004,-1.77682 -3.44082,-2.01938 -1.367062,-0.4652 -2.588723,-1.36402 -3.173593,-2.33493 -0.827897,-1.37434 -1.113763,-2.68537 -1.46585,-6.72247 -0.106723,-1.22378 -0.059,-7.26601 0.08254,-10.44989 0.232032,-5.21919 0.652178,-9.12501 1.078125,-10.02264 0.230857,-0.48649 0.77314,-1.03403 1.428901,-1.44274 0.580072,-0.36155 1.451594,-0.72617 1.735667,-0.72617 0.251809,0 1.348886,-0.59173 1.747324,-0.94245 0.834524,-0.73458 1.893066,-2.23153 3.328677,-4.70729 1.526877,-2.63316 2.959157,-4.57406 4.583647,-6.21134 1.298463,-1.30867 1.963051,-1.86132 3.342226,-2.77925 0.782911,-0.52108 3.108091,-1.76245 3.879251,-2.07107 0.140179,-0.0561 0.440279,-0.18062 0.66689,-0.27672 0.500668,-0.21231 3.214182,-1.1173 3.920871,-1.30765 0.280361,-0.0755 0.777367,-0.2105 1.104459,-0.29997 0.990226,-0.27085 2.381872,-0.58475 3.993052,-0.90069 2.056799,-0.40331 2.254527,-0.43865 3.823133,-0.68324 0.747632,-0.11658 1.569605,-0.24894 1.826606,-0.29411 0.257,-0.0452 0.926049,-0.14122 1.486777,-0.21341 0.560722,-0.0722 1.248887,-0.16613 1.529253,-0.20872 0.517235,-0.0786 1.074604,-0.14912 3.058502,-0.38696 2.569656,-0.30806 3.481808,-0.39339 5.904619,-0.5523 4.166257,-0.27329 7.377653,-0.37041 18.372273,-0.55566 8.84411,-0.14902 9.46446,-0.14902 18.30856,0 12.29766,0.2072 16.41526,0.35162 20.7936,0.72929 1.48743,0.1283 4.33062,0.46025 6.54181,0.76378 0.32709,0.0449 1.03437,0.14155 1.57173,0.21478 1.30952,0.17845 4.36825,0.65879 5.09751,0.8005 0.21028,0.0409 0.63082,0.11881 0.93455,0.17321 1.46963,0.26328 2.36033,0.45299 4.20544,0.89572 3.01138,0.72258 5.91837,1.74094 8.11969,2.84443 2.16335,1.08445 3.74353,2.22176 5.48444,3.94731 1.83426,1.81808 2.94255,3.31509 4.87472,6.58446 2.17972,3.68828 3.28404,4.92393 4.78959,5.35916 1.70656,0.49334 2.94867,1.34022 3.34542,2.28093 0.30866,0.73185 0.63879,3.16903 0.8697,6.42055 0.29987,4.22263 0.40664,12.57283 0.19283,15.08014 -0.21912,2.56953 -0.53774,4.02692 -1.14166,5.22205 -0.33037,0.65377 -0.40806,0.76158 -0.94201,1.3072 -0.55115,0.56317 -1.28324,1.0006 -2.44152,1.45882 -2.18749,0.86536 -4.65699,2.60065 -7.26395,5.10427 -1.67247,1.60619 -4.1398,3.6821 -6.37189,5.36109 -5.10979,3.84359 -11.28292,7.08612 -16.14212,8.4789 -0.18691,0.0536 -0.45453,0.13021 -0.59471,0.17031 -2.49775,0.71442 -4.71201,1.01316 -6.31458,0.85194 -2.55057,-0.25659 -5.71719,-0.97792 -7.91597,-1.80319 -0.96341,-0.3616 -2.63707,-1.26952 -3.90883,-2.12045 -0.91576,-0.61274 -2.65175,-1.93062 -3.35513,-2.54707 -0.14018,-0.12285 -0.7546,-0.64432 -1.36538,-1.15882 -0.90027,-0.75836 -5.21224,-4.6075 -6.82354,-6.09113 -0.205,-0.18876 -0.41663,-0.38144 -0.47028,-0.42817 -0.0536,-0.0467 -0.32688,-0.29523 -0.60718,-0.55222 -1.67814,-1.53861 -4.21489,-3.72841 -5.16762,-4.46083 -2.48681,-1.91177 -3.6454,-2.56609 -4.91502,-2.77576 -0.67184,-0.11095 -1.5831,0.005 -2.09526,0.26604 -1.01062,0.51557 -4.97654,3.8381 -9.99037,8.36961 -0.98127,0.88689 -1.95528,1.76644 -2.16446,1.95457 -0.20919,0.18813 -0.62973,0.57375 -0.93454,0.85692 -0.30482,0.28317 -1.03211,0.93228 -1.6162,1.44246 -0.58409,0.51017 -1.0811,0.94757 -1.10446,0.972 -0.0234,0.0244 -0.32921,0.29283 -0.67967,0.59646 -0.35045,0.30362 -0.6563,0.57276 -0.67967,0.59808 -0.10353,0.11219 -1.89511,1.5502 -2.561321,2.05583 -1.692152,1.2843 -2.822609,1.96686 -4.660144,2.81378 -1.334852,0.61523 -4.604998,1.55259 -6.88164,1.97254 -0.654224,0.12069 -3.585664,0.24518 -3.908091,0.16596 z m 73.48912,-2.38504 c 3.70894,-0.22999 8.82865,-1.94916 13.6011,-4.56717 5.57237,-3.05682 10.98121,-7.52188 14.17131,-11.69859 2.76428,-3.61918 4.1326,-7.23697 4.63933,-12.26625 0.28212,-2.79992 0.1,-8.68091 -0.38579,-12.45668 -0.3068,-2.38467 -0.41934,-3.10365 -0.73146,-4.67272 -0.86915,-4.36941 -2.17281,-7.84292 -3.96763,-10.57145 -2.33777,-3.55391 -5.12472,-5.80607 -9.78293,-7.90566 -0.91909,-0.41426 -3.33752,-1.25559 -4.54528,-1.58122 -0.87105,-0.23485 -2.45959,-0.63935 -2.71867,-0.69229 -0.11682,-0.0239 -0.59471,-0.12473 -1.06198,-0.22415 -0.78006,-0.16595 -1.04968,-0.22074 -2.16644,-0.44024 -0.5077,-0.0998 -1.37694,-0.24983 -1.95405,-0.33727 -0.257,-0.039 -0.79224,-0.12757 -1.18942,-0.19696 -0.78292,-0.13676 -1.6422,-0.26342 -4.37536,-0.64489 -0.97975,-0.13674 -3.15524,-0.40228 -4.20545,-0.5133 -0.39718,-0.042 -1.2765,-0.13679 -1.95405,-0.21069 -0.67754,-0.0739 -1.67155,-0.17343 -2.20892,-0.22119 -0.53736,-0.0478 -1.37845,-0.12363 -1.86908,-0.16859 -7.85534,-0.7198 -18.55794,-1.19047 -26.93186,-1.18441 -6.27231,0.005 -12.22634,0.23297 -17.71385,0.67959 -0.56072,0.0456 -1.74589,0.14055 -2.633711,0.21091 -1.908952,0.1513 -3.334985,0.27313 -4.502803,0.38469 -4.433967,0.42361 -4.725288,0.45405 -7.731224,0.80771 -1.419204,0.16697 -2.335239,0.28419 -2.973546,0.38051 -0.280365,0.0423 -0.949415,0.13665 -1.486777,0.20965 -0.537361,0.073 -1.187295,0.16974 -1.444292,0.21497 -0.257,0.0452 -0.830472,0.14099 -1.274377,0.2128 -1.649906,0.2669 -3.760513,0.67046 -4.885117,0.93406 -1.600975,0.37527 -2.402719,0.57109 -2.591236,0.6329 -0.116818,0.0383 -0.365323,0.11059 -0.552228,0.16063 -2.38325,0.63811 -4.563489,1.44008 -6.637005,2.44135 -5.978809,2.88705 -9.402069,7.35059 -11.430343,14.90387 -0.490322,1.82593 -0.8451,3.52018 -1.352099,6.45685 -0.811326,4.69947 -0.965809,9.75074 -0.422625,13.81909 0.8426,6.31086 3.575172,11.74672 7.888756,15.69297 5.135335,4.69801 14.345013,10.28251 19.259746,11.67858 0.85132,0.24183 1.762354,0.42211 3.143468,0.62206 0.995833,0.14417 5.111392,0.14687 5.989572,0.004 0.350457,-0.057 0.904809,-0.1462 1.231901,-0.19814 2.150981,-0.34152 4.220282,-1.0538 5.607263,-1.93007 0.795754,-0.50274 2.312028,-1.65101 4.120485,-3.12045 2.575742,-2.09289 4.072482,-3.38963 7.937022,-6.87647 7.51781,-6.78306 10.02913,-8.60098 12.48987,-9.04133 1.39352,-0.24937 3.04694,0.0445 4.5721,0.81252 1.75046,0.88152 3.47765,2.19901 7.54012,5.75155 0.39182,0.34263 1.79876,1.6111 2.33587,2.10597 1.05918,0.97587 3.59595,3.25259 5.01304,4.49913 2.44535,2.15103 5.21901,4.31981 6.83917,5.34768 2.70537,1.71636 5.30604,2.58406 8.381,2.79629 0.9807,0.0677 1.23759,0.0642 2.91848,-0.0401 z m -2.67619,-5.52766 c -0.66217,-0.0683 -1.72418,-0.34308 -2.50358,-0.64781 -2.07389,-0.81085 -4.51696,-2.41273 -7.69145,-5.04312 -0.89737,-0.74357 -3.0111,-2.56903 -3.18594,-2.75144 -0.0234,-0.0244 -0.23364,-0.21401 -0.46727,-0.4214 -0.6911,-0.61345 -2.16132,-1.95691 -2.84611,-2.60071 -0.54662,-0.51389 -1.83324,-1.70128 -3.44082,-3.17545 -0.23364,-0.21425 -0.71153,-0.63778 -1.06199,-0.9412 -0.35045,-0.3034 -0.6563,-0.57167 -0.67966,-0.59615 -0.0234,-0.0245 -0.48214,-0.41 -1.0195,-0.85673 -3.09728,-2.5749 -5.591,-4.05727 -7.77371,-4.62102 -1.81429,-0.4686 -4.38768,-0.4686 -6.20197,0 -1.77486,0.45841 -3.57607,1.42582 -5.98958,3.21693 -1.42666,1.05875 -4.55456,3.75087 -6.62676,5.70353 -0.30373,0.28619 -0.89631,0.84053 -1.31686,1.23185 -0.42054,0.3913 -1.01313,0.94483 -1.31686,1.23005 -3.793001,3.56183 -8.223919,7.05039 -10.577333,8.32778 -0.327087,0.17753 -0.747636,0.40578 -0.934545,0.50722 -1.046026,0.56768 -2.394299,1.01016 -4.018467,1.31879 -0.581905,0.11058 -2.174699,0.11009 -2.752792,-8.8e-4 -0.247622,-0.0475 -0.660484,-0.12659 -0.917484,-0.17572 -0.708486,-0.13545 -2.47062,-0.70419 -3.270902,-1.0557 -0.140182,-0.0616 -0.598958,-0.25253 -1.019502,-0.42433 -0.986201,-0.40289 -3.727547,-1.74752 -4.531059,-2.22249 -0.342637,-0.20254 -0.637931,-0.36825 -0.656211,-0.36825 -0.06881,0 -2.249769,-1.32985 -3.393542,-2.06922 -1.344893,-0.86939 -2.521467,-1.68409 -3.404723,-2.35757 -0.3306,-0.25208 -0.751144,-0.57237 -0.934541,-0.71176 -0.920391,-0.69955 -2.398005,-1.9779 -3.340529,-2.89003 -2.938287,-2.84355 -3.820014,-4.36452 -4.383383,-7.56131 -0.481748,-2.73361 -0.684485,-7.2406 -0.467584,-10.39482 0.173722,-2.52644 0.412278,-4.92829 0.59192,-5.95969 0.04477,-0.257 0.141866,-0.83047 0.215779,-1.27438 0.929284,-5.58103 2.547015,-9.40973 5.093261,-12.05431 1.650449,-1.71418 3.248297,-2.7311 6.289967,-4.00312 0.653517,-0.2733 2.328864,-0.82576 3.228421,-1.06458 1.757579,-0.46663 4.008117,-0.96902 5.522306,-1.23276 1.755277,-0.30573 3.059456,-0.52408 3.547017,-0.59386 0.315407,-0.0452 0.850649,-0.12188 1.189421,-0.17053 0.338772,-0.0486 1.036493,-0.14298 1.550494,-0.20965 0.513996,-0.0667 1.240392,-0.16248 1.61421,-0.21293 0.716226,-0.0967 1.102913,-0.1412 3.568258,-0.41104 5.252008,-0.57486 9.522223,-0.78497 19.328063,-0.95102 8.9176,-0.151 21.96133,0.0638 31.1373,0.51278 4.79458,0.23459 11.01499,0.66014 13.67832,0.93576 0.42054,0.0435 1.03224,0.10297 1.35934,0.13213 0.56696,0.0505 1.98008,0.20888 3.35586,0.37605 1.36505,0.16587 2.88543,0.40895 4.80015,0.76747 0.77419,0.14495 3.56702,0.80235 3.95058,0.92991 0.11681,0.0388 0.44178,0.13513 0.72214,0.21393 2.14368,0.60261 4.21944,1.44968 5.86214,2.3922 0.76776,0.44051 0.79028,0.45533 1.62119,1.06721 1.52617,1.12387 2.6266,2.31809 3.66379,3.97605 2.16294,3.45746 3.3584,8.40318 4.02502,16.65187 0.12855,1.59062 0.12862,6.58217 0,7.68874 -0.2682,2.30948 -0.46137,3.38569 -0.81583,4.54528 -0.12141,0.39718 -0.24383,0.79862 -0.27205,0.89207 -0.15644,0.5182 -0.95909,1.89112 -1.51535,2.59203 -2.98284,3.7584 -9.60027,8.65684 -15.96736,11.81958 -1.57397,0.78184 -2.14403,1.04504 -3.10099,1.43178 -0.257,0.10385 -0.54373,0.22005 -0.63718,0.2582 -0.22396,0.0914 -1.38634,0.50401 -1.6567,0.58802 -0.79389,0.24667 -0.85871,0.2633 -2.34986,0.60256 -0.39752,0.0904 -2.3546,0.16885 -2.87508,0.11517 z M 85.752448,279.6479 c 0,-0.0467 -0.131551,-0.0849 -0.292342,-0.0849 -0.160783,0 -0.315968,0.0382 -0.344847,0.0849 -0.03172,0.0513 0.08407,0.085 0.292342,0.085 0.189662,0 0.344847,-0.0382 0.344847,-0.085 z m 2.888588,0 c 0,-0.0467 -0.09332,-0.0849 -0.207385,-0.0849 -0.114056,0 -0.231007,0.0382 -0.259885,0.0849 -0.03066,0.0496 0.05576,0.085 0.207385,0.085 0.142931,0 0.259885,-0.0382 0.259885,-0.085 z m 67.117234,0 c 0,-0.0467 -0.0956,-0.0849 -0.2124,-0.0849 -0.11682,0 -0.21239,0.0382 -0.21239,0.0849 0,0.0467 0.0956,0.085 0.21239,0.085 0.11682,0 0.2124,-0.0382 0.2124,-0.085 z m 2.67619,0 c -0.0289,-0.0467 -0.16494,-0.0849 -0.30237,-0.0849 -0.13743,0 -0.24986,0.0382 -0.24986,0.0849 0,0.0467 0.13607,0.085 0.30237,0.085 0.17995,0 0.28111,-0.0344 0.24986,-0.085 z m -73.74362,-0.0856 c 0.07132,-0.11539 -0.176452,-0.20232 -0.361448,-0.12681 -0.136485,0.0557 -0.134745,0.0664 0.02125,0.13057 0.232752,0.0957 0.279054,0.0952 0.340208,-0.004 z m 70.33978,-0.0933 c -0.0618,-0.1 -0.37681,-0.0985 -0.37681,0.002 0,0.0428 0.0478,0.0945 0.10619,0.11492 0.14856,0.0518 0.32718,-0.0252 0.27062,-0.11675 z m -65.709914,0.0564 c 0,-0.0897 -0.163045,-0.12735 -0.211538,-0.0489 -0.02938,0.0475 0.0062,0.0863 0.07909,0.0863 0.07284,0 0.132452,-0.0169 0.132452,-0.0375 z m 69.963344,-0.0475 c -0.0289,-0.0467 -0.10534,-0.085 -0.16992,-0.085 -0.0646,0 -0.14104,0.0382 -0.16992,0.085 -0.0299,0.0484 0.0433,0.085 0.16992,0.085 0.12665,0 0.19981,-0.0366 0.16992,-0.085 z m -75.374685,-0.0543 c 0.09047,-0.0905 -0.02293,-0.1964 -0.155676,-0.14545 -0.06832,0.0262 -0.103074,0.0819 -0.07722,0.12372 0.05507,0.0891 0.156096,0.0985 0.232898,0.0217 z m 5.873107,-0.0217 c 0.02584,-0.0418 -0.0089,-0.0975 -0.07722,-0.12372 -0.132766,-0.051 -0.246151,0.055 -0.155681,0.14545 0.0768,0.0768 0.177827,0.0674 0.232898,-0.0217 z m 64.616458,-0.0514 c 0,-0.0701 -0.036,-0.12744 -0.0799,-0.12744 -0.10713,0 -0.18385,0.13267 -0.11597,0.20055 0.0957,0.0957 0.19592,0.0583 0.19592,-0.0731 z m 5.47983,0.0425 c 0.0289,-0.0467 -0.009,-0.085 -0.085,-0.085 -0.0756,0 -0.11384,0.0382 -0.085,0.085 0.0289,0.0467 0.0671,0.0849 0.085,0.0849 0.0178,0 0.0561,-0.0382 0.085,-0.0849 z m -76.505149,-0.16992 c 0,-0.0467 -0.07647,-0.085 -0.169919,-0.085 -0.09346,0 -0.169918,0.0382 -0.169918,0.085 0,0.0467 0.07646,0.085 0.169918,0.085 0.09345,0 0.169919,-0.0382 0.169919,-0.085 z m 6.881636,0 c 0,-0.0467 -0.07872,-0.085 -0.174929,-0.085 -0.09621,0 -0.151302,0.0382 -0.122423,0.085 0.02889,0.0467 0.107598,0.085 0.174928,0.085 0.06734,0 0.122424,-0.0382 0.122424,-0.085 z m 63.718893,0 c 0,-0.0467 -0.0574,-0.085 -0.12744,-0.085 -0.0701,0 -0.12744,0.0382 -0.12744,0.085 0,0.0467 0.0574,0.085 0.12744,0.085 0.0701,0 0.12744,-0.0382 0.12744,-0.085 z m 6.49932,0 c 0.0289,-0.0467 -0.009,-0.085 -0.0849,-0.085 -0.0756,0 -0.11384,0.0382 -0.085,0.085 0.0289,0.0467 0.0671,0.085 0.085,0.085 0.0178,0 0.0561,-0.0382 0.0849,-0.085 z m -77.694562,-0.16992 c 0,-0.0467 -0.05508,-0.085 -0.122423,-0.085 -0.06733,0 -0.146054,0.0382 -0.174929,0.085 -0.02889,0.0467 0.0262,0.085 0.122424,0.085 0.0962,0 0.174928,-0.0382 0.174928,-0.085 z m 7.858662,0 c -0.02889,-0.0467 -0.08848,-0.085 -0.132447,-0.085 -0.04396,0 -0.07995,0.0382 -0.07995,0.085 0,0.0467 0.05961,0.085 0.132452,0.085 0.07285,0 0.108822,-0.0382 0.07994,-0.085 z m 62.91179,0 c 0,-0.0467 -0.0574,-0.085 -0.12744,-0.085 -0.0701,0 -0.12744,0.0382 -0.12744,0.085 0,0.0467 0.0574,0.085 0.12744,0.085 0.0701,0 0.12744,-0.0382 0.12744,-0.085 z m 7.40838,-0.017 c -0.0793,-0.0793 -0.12461,-0.0793 -0.2039,0 -0.0793,0.0793 -0.0566,0.10196 0.10195,0.10196 0.15859,0 0.18124,-0.0227 0.10195,-0.10196 z m -78.649729,-0.15879 c -0.06309,-0.10208 -0.293729,-0.10303 -0.293729,-10e-4 0,0.0921 0.184395,0.16994 0.277498,0.11719 0.03583,-0.0203 0.04312,-0.0725 0.01621,-0.11598 z m 8.605666,-0.0437 c -0.08096,-0.081 -0.243279,0.0502 -0.182937,0.1478 0.03587,0.058 0.08338,0.0566 0.144393,-0.004 0.05003,-0.05 0.06736,-0.11452 0.03852,-0.14335 z m 62.295843,0.0921 c 0,-0.0701 -0.036,-0.12744 -0.0799,-0.12744 -0.10714,0 -0.18386,0.13267 -0.11598,0.20054 0.0957,0.0957 0.19592,0.0583 0.19592,-0.0731 z m 8.1985,-0.0425 c -0.0289,-0.0467 -0.0885,-0.085 -0.13245,-0.085 -0.044,0 -0.08,0.0382 -0.08,0.085 0,0.0467 0.0596,0.0849 0.13245,0.0849 0.0729,0 0.10883,-0.0382 0.0799,-0.0849 z m -70.027059,-0.1373 c 0.181886,-0.0642 0.196398,-0.20254 0.02125,-0.20254 -0.07009,0 -0.127438,0.0382 -0.127438,0.085 0,0.0467 -0.04298,0.0754 -0.09558,0.0637 -0.05256,-0.0117 -0.114693,0.0313 -0.138058,0.0956 -0.02748,0.0756 -0.0013,0.0981 0.07434,0.0638 0.06425,-0.0292 0.18372,-0.0766 0.265496,-0.10549 z m 70.451849,0.0523 c 0.0289,-0.0467 -0.009,-0.085 -0.085,-0.085 -0.0756,0 -0.11383,0.0382 -0.0849,0.085 0.0289,0.0467 0.0671,0.085 0.0849,0.085 0.0179,0 0.0561,-0.0382 0.085,-0.085 z M 81.419563,278.6284 c 0,-0.0467 -0.05735,-0.085 -0.127437,-0.085 -0.07009,0 -0.127438,0.0382 -0.127438,0.085 0,0.0467 0.05735,0.085 0.127438,0.085 0.07009,0 0.127437,-0.0382 0.127437,-0.085 z m -0.424794,-0.16992 c 0,-0.0467 -0.05735,-0.0849 -0.127437,-0.0849 -0.07009,0 -0.127438,0.0382 -0.127438,0.0849 0,0.0467 0.05735,0.085 0.127438,0.085 0.07009,0 0.127437,-0.0382 0.127437,-0.085 z m 10.789731,0 c 0,-0.0467 -0.03821,-0.0849 -0.08496,-0.0849 -0.04673,0 -0.08496,0.0382 -0.08496,0.0849 0,0.0467 0.03821,0.085 0.08496,0.085 0.04673,0 0.08496,-0.0382 0.08496,-0.085 z m 70.81293,0 c -0.0289,-0.0467 -0.0885,-0.0849 -0.13245,-0.0849 -0.044,0 -0.0799,0.0382 -0.0799,0.0849 0,0.0467 0.0596,0.085 0.13245,0.085 0.0729,0 0.10882,-0.0382 0.0799,-0.085 z m -10.61096,-0.23187 c -0.0864,-0.0864 -0.15763,0.0437 -0.0868,0.15832 0.0535,0.0866 0.0735,0.0867 0.10232,0 0.0197,-0.059 0.0127,-0.13042 -0.0155,-0.15866 z m -71.458971,0.062 c -0.02889,-0.0467 -0.08849,-0.085 -0.132452,-0.085 -0.04396,0 -0.07994,0.0382 -0.07994,0.085 0,0.0467 0.0596,0.085 0.132448,0.085 0.07285,0 0.108825,-0.0382 0.07995,-0.085 z m 11.681795,-0.085 c 0,-0.0467 -0.03821,-0.085 -0.08496,-0.085 -0.04673,0 -0.08496,0.0382 -0.08496,0.085 0,0.0467 0.03821,0.085 0.08496,0.085 0.04673,0 0.08496,-0.0382 0.08496,-0.085 z m 59.513446,0 c 0.0289,-0.0467 0.012,-0.085 -0.0375,-0.085 -0.0495,0 -0.09,0.0382 -0.09,0.085 0,0.0467 0.0168,0.085 0.0375,0.085 0.0206,0 0.0611,-0.0382 0.09,-0.085 z m 11.55436,0 c 0.0289,-0.0467 0.012,-0.085 -0.0375,-0.085 -0.0495,0 -0.09,0.0382 -0.09,0.085 0,0.0467 0.0169,0.085 0.0375,0.085 0.0206,0 0.0611,-0.0382 0.09,-0.085 z m -83.471747,-0.16992 c 0,-0.0467 -0.05735,-0.085 -0.127438,-0.085 -0.07009,0 -0.127438,0.0382 -0.127438,0.085 0,0.0467 0.05735,0.085 0.127438,0.085 0.07009,0 0.127438,-0.0382 0.127438,-0.085 z m 83.854057,0 c 0,-0.0467 0.0841,-0.085 0.18691,-0.085 0.12463,0 0.15859,-0.0283 0.10193,-0.085 -0.0566,-0.0567 -0.16118,-0.0496 -0.31368,0.0213 -0.25099,0.11656 -0.30241,0.23365 -0.1026,0.23365 0.0701,0 0.12744,-0.0382 0.12744,-0.085 z m -70.989795,-0.13653 c 0.07392,-0.0284 0.134387,-0.10482 0.134387,-0.16991 0,-0.17023 -0.11198,-0.14567 -0.235155,0.0516 -0.11482,0.18385 -0.103767,0.19684 0.100768,0.11834 z m -13.628889,-0.2033 c 0,-0.0467 -0.03826,-0.085 -0.08496,-0.085 -0.04673,0 -0.08496,0.0382 -0.08496,0.085 0,0.0467 0.03821,0.085 0.08496,0.085 0.04673,0 0.08496,-0.0382 0.08496,-0.085 z m 71.959864,0 c 0,-0.0467 -0.0382,-0.085 -0.085,-0.085 -0.0467,0 -0.085,0.0382 -0.085,0.085 0,0.0467 0.0382,0.085 0.085,0.085 0.0467,0 0.085,-0.0382 0.085,-0.085 z m -72.293326,-0.10833 c -0.01051,-0.10158 -0.12704,-0.0819 -0.163548,0.0276 -0.01869,0.0561 0.01188,0.0867 0.06797,0.068 0.05607,-0.0187 0.09909,-0.0617 0.09558,-0.0956 z m -0.26125,-0.14655 c 0,-0.0467 -0.05735,-0.085 -0.127438,-0.085 -0.07009,0 -0.127438,0.0382 -0.127438,0.085 0,0.0467 0.05735,0.085 0.127438,0.085 0.07009,0 0.127438,-0.0382 0.127438,-0.085 z m 15.043723,-0.16991 c 0.04338,0 0.07889,-0.0573 0.07889,-0.12744 0,-0.17611 -0.0797,-0.1595 -0.26615,0.0555 -0.192038,0.22141 -0.213075,0.3934 -0.02514,0.20546 0.07343,-0.0734 0.169008,-0.1335 0.212394,-0.1335 z m 57.086063,0.16991 c 0,-0.0467 -0.0382,-0.085 -0.085,-0.085 -0.0467,0 -0.085,0.0382 -0.085,0.085 0,0.0467 0.0382,0.085 0.085,0.085 0.0467,0 0.085,-0.0382 0.085,-0.085 z m -72.554576,-0.12242 c 0,-0.0206 -0.03821,-0.0611 -0.08496,-0.09 -0.04673,-0.0289 -0.08496,-0.012 -0.08496,0.0375 0,0.0495 0.03821,0.09 0.08496,0.09 0.04673,0 0.08496,-0.0169 0.08496,-0.0375 z m 72.128506,-0.13483 c -0.0507,-0.0948 -0.13431,-0.14628 -0.18578,-0.11448 -0.0617,0.0381 -0.0402,0.0969 0.063,0.1723 0.21101,0.15429 0.23123,0.14476 0.1228,-0.0578 z m -72.468343,-0.0826 c 0,-0.0467 -0.01688,-0.085 -0.03746,-0.085 -0.02059,0 -0.06109,0.0382 -0.08997,0.085 -0.02889,0.0467 -0.01202,0.0849 0.03746,0.0849 0.04948,0 0.08997,-0.0382 0.08997,-0.0849 z m -0.297352,-0.085 c 0.02889,-0.0467 0.01202,-0.085 -0.03746,-0.085 -0.04948,0 -0.08997,0.0382 -0.08997,0.085 0,0.0467 0.01683,0.085 0.03746,0.085 0.02059,0 0.06109,-0.0382 0.08997,-0.085 z m -0.297356,-0.16992 c 0,-0.0467 -0.03821,-0.0849 -0.08496,-0.0849 -0.04673,0 -0.08496,0.0382 -0.08496,0.0849 0,0.0467 0.03821,0.085 0.08496,0.085 0.04673,0 0.08496,-0.0382 0.08496,-0.085 z m 17.055038,-0.12444 c 0.124213,-0.11518 0.197657,-0.23759 0.163226,-0.27203 -0.057,-0.057 -0.481438,0.32673 -0.481438,0.43525 0,0.0918 0.09661,0.0423 0.318212,-0.16322 z m 55.466143,0.075 c -0.0284,-0.0739 -0.0516,-0.15037 -0.0516,-0.16992 0,-0.0195 -0.0573,-0.0355 -0.12744,-0.0355 -0.15362,0 -0.16424,0.0991 -0.0255,0.23788 0.14517,0.14518 0.26534,0.12612 0.20449,-0.0324 z m 16.43039,0.0494 c 0,-0.0467 0.0573,-0.0849 0.12744,-0.0849 0.0701,0 0.12744,-0.0414 0.12744,-0.092 0,-0.0506 -0.0478,-0.0698 -0.10621,-0.0426 -0.0584,0.0272 -0.1731,0.0731 -0.25487,0.10196 -0.18189,0.0641 -0.1964,0.20253 -0.0213,0.20253 0.0701,0 0.12744,-0.0382 0.12744,-0.0849 z m -89.206447,-0.16992 c 0,-0.0467 -0.03596,-0.0849 -0.07995,-0.0849 -0.04396,0 -0.103573,0.0382 -0.132448,0.0849 -0.02889,0.0467 0.0071,0.085 0.07994,0.085 0.07284,0 0.132452,-0.0382 0.132452,-0.085 z m -0.339832,-0.16991 c 0,-0.0467 -0.03821,-0.085 -0.08496,-0.085 -0.04673,0 -0.08496,0.0382 -0.08496,0.085 0,0.0467 0.03821,0.085 0.08496,0.085 0.04673,0 0.08496,-0.0382 0.08496,-0.085 z m 72.617279,-0.0587 c -0.079,-0.079 -0.1721,-0.11514 -0.2069,-0.0803 -0.0348,0.0348 -0.007,0.0989 0.0617,0.14232 0.20683,0.1308 0.29876,0.0916 0.1452,-0.062 z m 17.43875,0.0587 c 0,-0.0467 -0.0169,-0.085 -0.0375,-0.085 -0.0206,0 -0.0611,0.0382 -0.09,0.085 -0.0289,0.0467 -0.012,0.085 0.0375,0.085 0.0495,0 0.09,-0.0382 0.09,-0.085 z m -90.353386,-0.085 c 0.02889,-0.0467 0.01202,-0.085 -0.03746,-0.085 -0.04948,0 -0.08997,0.0382 -0.08997,0.085 0,0.0467 0.01683,0.085 0.03746,0.085 0.02059,0 0.06109,-0.0382 0.08997,-0.085 z m -0.297356,-0.16992 c 0,-0.0467 -0.03821,-0.085 -0.08496,-0.085 -0.04673,0 -0.08496,0.0382 -0.08496,0.085 0,0.0467 0.03821,0.085 0.08496,0.085 0.04673,0 0.08496,-0.0382 0.08496,-0.085 z m 19.150187,-0.35272 c -0.03048,-0.0494 -0.137567,-0.005 -0.255878,0.10626 -0.287867,0.27045 -0.252751,0.37811 0.05244,0.16079 0.140726,-0.10021 0.232279,-0.22038 0.203435,-0.26705 z m 72.265185,0.17371 c 0,-0.12213 -0.14742,-0.0871 -0.19898,0.0472 -0.0316,0.0823 -0.006,0.10744 0.0759,0.0759 0.0677,-0.026 0.12312,-0.0814 0.12312,-0.12312 z m -91.670248,0.0566 c 0,-0.0206 -0.03821,-0.0611 -0.08496,-0.09 -0.04673,-0.0289 -0.08496,-0.012 -0.08496,0.0375 0,0.0495 0.03821,0.09 0.08496,0.09 0.04673,0 0.08496,-0.0168 0.08496,-0.0375 z m 72.979368,-0.0111 c 0,-0.0267 -0.0592,-0.10772 -0.13148,-0.18004 -0.16364,-0.16363 -0.27194,-0.0778 -0.1251,0.0991 0.10608,0.12781 0.25658,0.1753 0.25658,0.0809 z m 18.94575,-0.20633 c 0,-0.0467 -0.0169,-0.085 -0.0375,-0.085 -0.0206,0 -0.0611,0.0382 -0.09,0.085 -0.0289,0.0467 -0.012,0.085 0.0375,0.085 0.0495,0 0.09,-0.0382 0.09,-0.085 z M 74.877756,275.6547 c 0,-0.0467 -0.05735,-0.0849 -0.127438,-0.0849 -0.07009,0 -0.127438,-0.0382 -0.127438,-0.085 0,-0.0467 -0.05735,-0.085 -0.127438,-0.085 -0.07009,0 -0.127437,0.0382 -0.127437,0.085 0,0.0467 0.05735,0.085 0.127437,0.085 0.07009,0 0.127438,0.0382 0.127438,0.0849 0,0.0467 0.05735,0.085 0.127438,0.085 0.07009,0 0.127438,-0.0382 0.127438,-0.085 z m 93.199494,0 c 0,-0.0467 -0.0573,-0.0849 -0.12743,-0.0849 -0.0701,0 -0.12744,0.0382 -0.12744,0.0849 0,0.0467 0.0573,0.085 0.12744,0.085 0.0701,0 0.12743,-0.0382 0.12743,-0.085 z m -20.21759,-0.16518 c -0.10827,-0.20229 -0.24906,-0.29635 -0.32678,-0.21833 -0.0319,0.0321 0.0322,0.13148 0.1425,0.22091 0.25355,0.20556 0.29535,0.20497 0.18428,-0.003 z m -52.09131,-0.0947 c 0.111755,-0.0931 0.177495,-0.1949 0.146107,-0.2263 -0.03141,-0.0314 -0.1602,0.046 -0.286228,0.17204 -0.264807,0.26482 -0.160986,0.30502 0.140121,0.0543 z m 72.56378,0.0899 c 0,-0.0467 -0.0382,-0.085 -0.085,-0.085 -0.0467,0 -0.085,0.0382 -0.085,0.085 0,0.0467 0.0382,0.085 0.085,0.085 0.0467,0 0.085,-0.0382 0.085,-0.085 z M 74.283048,275.3625 c 0,-0.0206 -0.03821,-0.0611 -0.08496,-0.09 -0.04673,-0.0289 -0.08496,-0.012 -0.08496,0.0375 0,0.0495 0.03821,0.09 0.08496,0.09 0.04673,0 0.08496,-0.0168 0.08496,-0.0375 z m 94.480242,-0.15581 c -0.0105,-0.10159 -0.12704,-0.0819 -0.16354,0.0276 -0.0187,0.0561 0.0119,0.0867 0.068,0.068 0.0561,-0.0187 0.0991,-0.0617 0.0956,-0.0956 z m -94.871104,-0.0957 c -0.02514,-0.0655 -0.109944,-0.14197 -0.188486,-0.16996 -0.07854,-0.028 -0.190589,-0.0732 -0.249,-0.10042 -0.05841,-0.0272 -0.106198,-0.008 -0.106198,0.0425 0,0.0506 0.05735,0.092 0.127438,0.092 0.07009,0 0.127438,0.0354 0.127438,0.0787 0,0.0433 0.06691,0.0962 0.148678,0.11758 0.08177,0.0214 0.157037,0.0433 0.16725,0.0487 0.0102,0.005 -0.0018,-0.0437 -0.02712,-0.10921 z m 73.367404,-0.0296 c -0.007,-0.15061 -0.33937,-0.4546 -0.43371,-0.3963 -0.0696,0.043 -0.0237,0.1249 0.14631,0.26094 0.27381,0.21909 0.29148,0.22742 0.2874,0.13536 z m 21.92383,-0.0658 c 0.0591,-0.0712 0.0838,-0.15313 0.0549,-0.18202 -0.0617,-0.0617 -0.31151,0.12832 -0.31151,0.23695 0,0.11703 0.13846,0.0874 0.25658,-0.0549 z m -72.420435,-0.4612 c 0.157142,-0.13798 0.247917,-0.27422 0.201717,-0.30277 -0.0462,-0.0285 -0.131489,-8.9e-4 -0.189542,0.0623 -0.494201,0.535 -0.501026,0.66963 -0.01219,0.24042 z m 72.936605,0.1051 c 0.24578,-0.14518 0.32339,-0.27904 0.16179,-0.27904 -0.0467,0 -0.085,0.0405 -0.085,0.09 0,0.0495 -0.0331,0.0695 -0.0736,0.0445 -0.0405,-0.025 -0.14198,0.0301 -0.22555,0.12242 -0.18695,0.20656 -0.10385,0.21485 0.22233,0.0222 z m -96.860839,-0.19407 c 0,-0.0467 -0.05735,-0.085 -0.127438,-0.085 -0.07009,0 -0.127437,0.0382 -0.127437,0.085 0,0.0467 0.05735,0.0849 0.127437,0.0849 0.07009,0 0.127438,-0.0382 0.127438,-0.0849 z m 73.659039,0.013 c 0,-0.088 -0.29646,-0.43779 -0.37104,-0.43779 -0.11977,0 -0.0421,0.19491 0.1374,0.34463 0.2213,0.18462 0.23364,0.18954 0.23364,0.0932 z m -74.083828,-0.26787 c -0.0898,-0.16778 -0.254876,-0.23382 -0.254876,-0.10195 0,0.0893 0.184528,0.27186 0.274857,0.27186 0.03901,0 0.03004,-0.0765 -0.01997,-0.16991 z m 98.042128,-0.0375 c 0,-0.0897 -0.16304,-0.12735 -0.21154,-0.0489 -0.0294,0.0475 0.006,0.0863 0.0791,0.0863 0.0728,0 0.13245,-0.0169 0.13245,-0.0375 z M 72.031648,274.0406 c 0.02889,-0.0467 0.01202,-0.085 -0.03746,-0.085 -0.04948,0 -0.08997,0.0382 -0.08997,0.085 0,0.0467 0.01688,0.0849 0.03746,0.0849 0.02059,0 0.06109,-0.0382 0.08997,-0.0849 z m 25.981545,-0.70518 c -0.03083,-0.0499 -0.157098,0.0284 -0.295169,0.18292 -0.338061,0.37835 -0.301377,0.49608 0.05386,0.17282 0.162342,-0.14772 0.270925,-0.3078 0.241309,-0.35574 z m 47.719967,0.54826 c 0,-0.1242 -0.33801,-0.46795 -0.39958,-0.40638 -0.0322,0.0322 0.0349,0.15078 0.14923,0.26337 0.23747,0.23385 0.25035,0.2412 0.25035,0.14301 z m 25.23439,-0.0575 c 0.0591,-0.0712 0.0838,-0.15312 0.0549,-0.18202 -0.0617,-0.0617 -0.31151,0.12832 -0.31151,0.23696 0,0.11703 0.13846,0.0874 0.25658,-0.0549 z m -99.318215,-0.0779 c 0,-0.0897 -0.163045,-0.12734 -0.211542,-0.0489 -0.02933,0.0475 0.0062,0.0863 0.07909,0.0863 0.07284,0 0.132452,-0.0169 0.132452,-0.0375 z m 99.738835,-0.21408 c 0.0687,-0.0435 0.0965,-0.10752 0.0617,-0.14232 -0.0348,-0.0348 -0.12791,10e-4 -0.2069,0.0803 -0.15355,0.15355 -0.0616,0.19279 0.1452,0.062 z M 71.139584,273.4459 c 0,-0.0467 -0.04051,-0.085 -0.08997,-0.085 -0.04949,0 -0.06635,0.0382 -0.03746,0.085 0.02889,0.0467 0.06937,0.085 0.08997,0.085 0.02059,0 0.03746,-0.0382 0.03746,-0.085 z m -0.424794,-0.33984 c 0,-0.0467 -0.03821,-0.085 -0.08496,-0.085 -0.04673,0 -0.08496,0.0382 -0.08496,0.085 0,0.0467 0.03821,0.085 0.08496,0.085 0.04673,0 0.08496,-0.0382 0.08496,-0.085 z m 101.22113,0.0334 c 0.0739,-0.0284 0.13438,-0.10482 0.13438,-0.16992 0,-0.15086 -0.0655,-0.14996 -0.21846,0.003 -0.19564,0.19564 -0.16245,0.2615 0.0841,0.1669 z m -27.32781,-0.34748 c -0.12603,-0.12602 -0.25555,-0.20272 -0.28783,-0.17044 -0.0825,0.0825 0.22181,0.39957 0.38338,0.39957 0.0978,0 0.0723,-0.0613 -0.0956,-0.22913 z m -74.360591,0.0592 c 0.02889,-0.0467 0.01202,-0.0849 -0.03746,-0.0849 -0.04948,0 -0.08997,0.0382 -0.08997,0.0849 0,0.0467 0.01683,0.085 0.03746,0.085 0.02059,0 0.06109,-0.0382 0.08997,-0.085 z m 28.758533,-0.2427 c 0.152884,-0.13348 0.239781,-0.2663 0.193085,-0.29516 -0.04668,-0.0288 -0.20575,0.0804 -0.353479,0.2427 -0.324507,0.35661 -0.22517,0.3891 0.160394,0.0525 z m 73.489048,0.0637 c 0,-0.12214 -0.14741,-0.0871 -0.19899,0.0472 -0.0316,0.0823 -0.006,0.10744 0.0759,0.0759 0.0677,-0.026 0.12312,-0.0814 0.12312,-0.12311 z M 69.760528,272.42644 c -0.116115,-0.18594 -0.198496,-0.21301 -0.27441,-0.0902 -0.02708,0.0439 0.01842,0.11916 0.101187,0.16734 0.231833,0.13497 0.289621,0.10922 0.173223,-0.0771 z m 103.483922,-0.33649 c 0.0595,-0.17865 -0.17115,-0.0541 -0.31729,0.17122 l -0.13471,0.20774 0.20774,-0.13471 c 0.11426,-0.0741 0.22417,-0.184 0.24426,-0.24425 z m -29.51588,-0.022 c -0.32428,-0.3777 -0.37466,-0.41596 -0.47014,-0.35695 -0.0635,0.0393 -8.8e-4,0.14416 0.18078,0.30277 0.32914,0.28738 0.52029,0.32317 0.28936,0.0542 z m -74.458077,0.055 c 0,-0.0834 -0.238229,-0.29129 -0.333767,-0.29129 -0.134983,0 -0.110557,0.0939 0.05765,0.22158 0.158,0.11992 0.276116,0.14975 0.276116,0.0697 z m -0.509751,-0.32077 c 0,-0.0802 -0.329579,-0.39531 -0.413515,-0.39531 -0.167211,0 -0.104678,0.12533 0.137399,0.27542 0.24893,0.15433 0.276116,0.16614 0.276116,0.11989 z m 105.006268,-0.0521 c 0.0687,-0.0435 0.0965,-0.10752 0.0617,-0.14232 -0.0348,-0.0348 -0.12791,0.001 -0.2069,0.0803 -0.15356,0.15355 -0.0616,0.19279 0.1452,0.062 z m -73.36803,-0.37087 c 0.18206,-0.15403 0.31587,-0.3254 0.29735,-0.38081 -0.0348,-0.10411 -0.30492,0.10185 -0.6203,0.47296 -0.23882,0.28101 -0.0567,0.22905 0.32295,-0.0922 z m 42.34979,-0.11729 c -0.22258,-0.2768 -0.41441,-0.44971 -0.49891,-0.44971 -0.14218,0 -0.0953,0.1253 0.0964,0.25736 0.0997,0.0687 0.22397,0.17129 0.27611,0.22793 0.14661,0.15924 0.25792,0.12793 0.12643,-0.0356 z m 31.67913,-0.0201 c 0.21954,-0.18315 0.2412,-0.25967 0.0735,-0.25967 -0.0647,0 -0.18029,0.0956 -0.25683,0.21239 -0.16407,0.25039 -0.0847,0.27087 0.18334,0.0473 z M 67.955446,271.06907 c -0.08357,-0.0924 -0.186935,-0.1463 -0.229686,-0.11987 -0.105914,0.0654 0.08833,0.28778 0.251443,0.28778 0.10963,0 0.106193,-0.0266 -0.02174,-0.16791 z m -0.70508,-0.53063 c -0.101237,-0.10125 -0.209669,-0.15848 -0.240951,-0.1272 -0.03128,0.0313 0.03455,0.131 0.146319,0.22159 0.263583,0.21369 0.333241,0.14421 0.09463,-0.0944 z m 108.179574,-0.15715 c 0.11564,-0.1871 -0.0523,-0.18282 -0.21563,0.006 -0.0937,0.10809 -0.17046,0.21115 -0.17046,0.22901 0,0.058 0.32872,-0.14167 0.38609,-0.23449 z m -73.69133,-0.2465 c 0.2026,-0.18566 0.39703,-0.33859 0.43207,-0.33983 0.11503,-0.004 0.0665,-0.17219 -0.0497,-0.17219 -0.10053,0 -0.20464,0.10139 -0.71974,0.70091 -0.2245,0.2613 -0.043,0.15967 0.33735,-0.18889 z m 39.86599,0.14977 c -0.4449,-0.51625 -0.5267,-0.58883 -0.57522,-0.51033 -0.0287,0.0464 0.10533,0.22252 0.29785,0.39128 0.39494,0.34619 0.51901,0.39944 0.27737,0.11905 z m -75.134111,-0.34317 c -0.278033,-0.3354 -0.588294,-0.65843 -0.632422,-0.65843 -0.133715,0 -0.02085,0.19555 0.267722,0.46384 0.307204,0.2856 0.545579,0.41279 0.3647,0.19459 z m 110.350751,-0.77707 c 0.36064,-0.38671 0.10371,-0.35321 -0.29893,0.039 -0.52549,0.51183 -0.67575,0.79347 -0.23714,0.44444 0.18173,-0.14461 0.42296,-0.36215 0.53607,-0.48343 z m -36.49569,0.0125 c -0.17022,-0.27701 -0.57202,-0.64835 -0.64963,-0.60038 -0.0484,0.0299 0.073,0.19832 0.2738,0.38012 0.37148,0.33626 0.48967,0.40553 0.37583,0.22026 z m -36.86174,-0.57247 c 0.23226,-0.22914 0.39489,-0.44403 0.36139,-0.47753 -0.0549,-0.0548 -0.51562,0.37048 -0.81533,0.75264 -0.23394,0.2983 0.0426,0.1307 0.45394,-0.27511 z m 35.45087,-0.73532 c -0.35988,-0.42402 -0.52565,-0.55442 -0.56286,-0.44278 -0.0192,0.0576 0.11406,0.23073 0.29613,0.38476 0.39928,0.33782 0.52796,0.36581 0.26673,0.058 z m -33.91678,-0.65354 c 0.17517,-0.15587 0.30276,-0.33053 0.28355,-0.38815 -0.0205,-0.0613 -0.18569,0.0561 -0.39872,0.2834 -0.4229,0.45121 -0.34934,0.51811 0.11517,0.10475 z m -41.079793,0.14757 c 0,-0.0834 -0.529596,-0.55231 -0.573844,-0.50807 -0.06273,0.0627 0.34748,0.54892 0.467646,0.55424 0.05841,0.003 0.106198,-0.0182 0.106198,-0.0462 z m 115.173163,-0.49339 c 0.50751,-0.55298 0.47696,-0.6478 -0.0541,-0.168 -0.32041,0.28946 -0.42165,0.45738 -0.27578,0.45738 0.0354,0 0.18383,-0.13022 0.3299,-0.28938 z m -41.47972,-0.15284 c -0.38036,-0.4403 -0.53758,-0.5717 -0.58748,-0.49095 -0.0561,0.0908 0.0272,0.18867 0.41586,0.48895 0.31169,0.24081 0.37859,0.24158 0.17162,0.002 z M 63.15348,266.446 c 0,-0.12073 -0.244688,-0.26 -0.321619,-0.18306 -0.05424,0.0542 0.148374,0.30141 0.247061,0.30141 0.041,0 0.07456,-0.0533 0.07456,-0.11835 z m 43.07741,-0.32243 c 0.13829,-0.10224 0.25144,-0.23605 0.25144,-0.29735 0,-0.14097 -0.0691,-0.14188 -0.19723,-0.003 -0.47319,0.51436 -0.49308,0.62444 -0.0542,0.29997 z m -43.5022,-0.2359 c 0,-0.0451 -0.07936,-0.12444 -0.176351,-0.17635 -0.161343,-0.0863 -0.168319,-0.0794 -0.08197,0.082 0.09702,0.18129 0.258317,0.24021 0.258317,0.0944 z m 11.983636,-0.0455 c -0.0066,-0.12611 -0.19673,-0.10294 -0.240823,0.0294 -0.02381,0.0715 0.01502,0.10331 0.103604,0.085 0.07793,-0.0161 0.139693,-0.0676 0.137219,-0.11431 z m 105.319834,-0.18 c -0.0815,-0.0815 -0.32373,0.14058 -0.26212,0.24026 0.0307,0.0497 0.10571,0.0294 0.18516,-0.0501 0.0735,-0.0735 0.10809,-0.15904 0.077,-0.19017 z m -97.84797,-0.0749 c 0,-0.0701 -0.05735,-0.12744 -0.127438,-0.12744 -0.07009,0 -0.127438,0.0574 -0.127438,0.12744 0,0.0701 0.05735,0.12744 0.127438,0.12744 0.07009,0 0.127438,-0.0573 0.127438,-0.12744 z m 54.20353,0.0965 c 0,-0.10859 -0.51212,-0.58969 -0.56811,-0.5337 -0.0379,0.0379 0.0559,0.18049 0.20845,0.31681 0.25853,0.23101 0.35966,0.292 0.35966,0.21689 z m -73.998867,-0.30886 c 0,-0.0467 -0.03821,-0.085 -0.08496,-0.085 -0.04673,0 -0.08496,0.0382 -0.08496,0.085 0,0.0467 0.03821,0.0849 0.08496,0.0849 0.04673,0 0.08496,-0.0382 0.08496,-0.0849 z m 45.006777,-0.25009 c 0.21484,-0.17923 0.24185,-0.26094 0.085,-0.257 -0.0584,0.001 -0.17489,0.0971 -0.25885,0.2124 -0.18016,0.24753 -0.0954,0.26927 0.17389,0.0446 z m -45.21687,-0.1533 c -0.07471,-0.29768 -0.110107,-0.3299 -0.230322,-0.20968 -0.07369,0.0737 -0.06421,0.11061 0.03852,0.15004 0.07496,0.0288 0.115492,0.10648 0.09008,0.17271 -0.0254,0.0662 0,0.1204 0.05705,0.1204 0.0702,0 0.0845,-0.0747 0.04466,-0.23347 z m 118.34492,0.14851 c 0.0289,-0.0467 0.012,-0.085 -0.0375,-0.085 -0.0495,0 -0.09,0.0382 -0.09,0.085 0,0.0467 0.0168,0.085 0.0375,0.085 0.0206,0 0.0611,-0.0382 0.09,-0.085 z m -45.15546,-0.32502 c 0,-0.11582 -0.39035,-0.44573 -0.45311,-0.38297 -0.032,0.032 0.0253,0.14705 0.12731,0.25565 0.18853,0.20068 0.3258,0.25432 0.3258,0.12732 z m 45.4862,-0.1492 c 0.0736,-0.19187 0.0666,-0.20588 -0.0759,-0.15121 -0.0701,0.0269 -0.12744,0.10215 -0.12744,0.16725 0,0.16095 0.13962,0.14994 0.20331,-0.016 z M 61.964064,264.5303 c 0,-0.044 -0.03821,-0.10358 -0.08496,-0.13245 -0.04673,-0.0289 -0.08496,0.007 -0.08496,0.0799 0,0.0728 0.03821,0.13246 0.08496,0.13246 0.04673,0 0.08496,-0.036 0.08496,-0.0799 z m 46.395296,-0.25459 c 0.15722,-0.13726 0.25559,-0.27984 0.21861,-0.31682 -0.0548,-0.0548 -0.56639,0.42881 -0.56639,0.53543 0,0.0671 0.0733,0.021 0.34778,-0.21861 z m 72.80495,-0.0967 c 0.0866,-0.16184 0.0797,-0.16847 -0.0844,-0.0807 -0.0983,0.0526 -0.15629,0.13197 -0.12886,0.17635 0.0725,0.11722 0.10775,0.1014 0.21321,-0.0957 z m -119.370165,0.006 c 0,-0.0467 -0.03821,-0.085 -0.08496,-0.085 -0.04673,0 -0.08496,0.0382 -0.08496,0.085 0,0.0467 0.03821,0.085 0.08496,0.085 0.04673,0 0.08496,-0.0382 0.08496,-0.085 z m 72.533985,-0.31409 c -0.12603,-0.12602 -0.25554,-0.20273 -0.28781,-0.17045 -0.067,0.067 0.28731,0.39958 0.42567,0.39958 0.0502,0 -0.0118,-0.1031 -0.13786,-0.22913 z m -72.737531,-0.17265 c -0.08636,-0.0864 -0.15762,0.0436 -0.08676,0.15831 0.05353,0.0866 0.07354,0.0867 0.102323,0 0.01966,-0.059 0.01268,-0.13042 -0.01555,-0.15865 z m 119.825141,0.0619 c 0,-0.0467 -0.0382,-0.0849 -0.085,-0.0849 -0.0467,0 -0.085,0.0382 -0.085,0.0849 0,0.0467 0.0382,0.085 0.085,0.085 0.0467,0 0.085,-0.0382 0.085,-0.085 z m -72.05886,-0.28241 c 0.10203,-0.10861 0.15932,-0.22365 0.12731,-0.25565 -0.0628,-0.0628 -0.45311,0.26714 -0.45311,0.38296 0,0.127 0.13728,0.0734 0.3258,-0.12731 z m 72.18267,0.0334 c 0.0269,-0.0435 0.01,-0.10311 -0.0375,-0.13245 -0.0475,-0.0294 -0.0863,0.006 -0.0863,0.0791 0,0.14923 0.051,0.1712 0.12381,0.0534 z m -120.000281,-0.1808 c 0,-0.044 -0.03821,-0.0799 -0.08496,-0.0799 -0.04673,0 -0.08496,0.0596 -0.08496,0.13245 0,0.0729 0.03821,0.10882 0.08496,0.0799 0.04673,-0.0289 0.08496,-0.0885 0.08496,-0.13245 z m 72.107531,0.0313 c -0.079,-0.079 -0.1721,-0.11514 -0.2069,-0.0803 -0.0348,0.0348 -0.007,0.0989 0.0617,0.14232 0.20683,0.13081 0.29876,0.0916 0.1452,-0.062 z m -23.60988,-0.45243 c 0.1093,-0.0911 0.18515,-0.20637 0.16854,-0.25619 -0.0166,-0.0498 -0.14187,0.026 -0.27835,0.16843 -0.27527,0.28732 -0.20095,0.34671 0.10981,0.0878 z m -48.667569,-0.25854 c 0,-0.0907 -0.03821,-0.1649 -0.08496,-0.1649 -0.04673,0 -0.08496,0.0978 -0.08496,0.2174 0,0.12332 0.03675,0.19469 0.08496,0.16491 0.04673,-0.0289 0.08496,-0.12671 0.08496,-0.21741 z m 71.620029,0.18533 c 0,-0.041 -0.0539,-0.11932 -0.11987,-0.17404 -0.0908,-0.0754 -0.13463,-0.0756 -0.1808,-8.8e-4 -0.0335,0.0542 -0.008,0.13196 0.0562,0.17274 0.15075,0.0955 0.24452,0.0963 0.24452,0.002 z m 48.85116,-0.0104 c 0,-0.0467 -0.0169,-0.085 -0.0375,-0.085 -0.0206,0 -0.0611,0.0382 -0.09,0.085 -0.0289,0.0467 -0.012,0.085 0.0375,0.085 0.0495,0 0.09,-0.0382 0.09,-0.085 z m 0.16991,-0.38231 c 0,-0.0701 -0.0382,-0.12744 -0.085,-0.12744 -0.0467,0 -0.0849,0.0573 -0.0849,0.12744 0,0.0701 0.0382,0.12743 0.0849,0.12743 0.0467,0 0.085,-0.0573 0.085,-0.12743 z m -71.29719,-0.0595 c 0.0561,-0.0561 0.10195,-0.13254 0.10195,-0.16992 0,-0.12518 -0.12796,-0.0697 -0.23515,0.10195 -0.11619,0.18602 -0.0293,0.2304 0.1332,0.068 z m 21.68142,0.0274 c 0,-0.10864 -0.24982,-0.29867 -0.31152,-0.23696 -0.0617,0.0617 0.12832,0.31151 0.23695,0.31151 0.041,0 0.0746,-0.0335 0.0746,-0.0745 z m -0.53201,-0.4089 c -0.079,-0.079 -0.1721,-0.11515 -0.2069,-0.0803 -0.0348,0.0348 -0.007,0.0989 0.0617,0.14233 0.20683,0.1308 0.29876,0.0916 0.1452,-0.062 z M 61.199437,261.8061 c 0,-0.14018 -0.03821,-0.25488 -0.08496,-0.25488 -0.0945,0 -0.117259,0.36418 -0.02832,0.45311 0.09598,0.096 0.113279,0.0657 0.113279,-0.19823 z m 120.980933,0.085 c 0,-0.0935 -0.0382,-0.16992 -0.085,-0.16992 -0.0467,0 -0.085,0.0765 -0.085,0.16992 0,0.0935 0.0382,0.16991 0.085,0.16991 0.0467,0 0.085,-0.0765 0.085,-0.16991 z m -70.77045,-0.094 c 0,-0.12214 -0.14741,-0.0872 -0.19898,0.0472 -0.0316,0.0823 -0.006,0.10744 0.0759,0.0759 0.0677,-0.026 0.12311,-0.0814 0.12311,-0.12311 z m 19.96525,-0.1404 c 0,-0.0355 -0.0765,-0.11227 -0.16991,-0.17063 -0.14008,-0.0875 -0.16992,-0.0848 -0.16992,0.015 0,0.0666 0.0478,0.14036 0.1062,0.16392 0.16192,0.0653 0.23363,0.0628 0.23363,-0.008 z m -19.37054,-0.2844 c 0,-0.12213 -0.14741,-0.0871 -0.19898,0.0473 -0.0316,0.0823 -0.006,0.10744 0.0759,0.0759 0.0677,-0.026 0.12311,-0.0814 0.12311,-0.12312 z m 18.85949,0.0303 c -0.003,-0.14723 -0.157,-0.29332 -0.24916,-0.23636 -0.0705,0.0436 -0.0547,0.0955 0.0542,0.1781 0.18138,0.13752 0.19665,0.14208 0.19494,0.0583 z m 51.48486,-0.42479 c 8.9e-4,-0.0584 -0.056,-0.1062 -0.12613,-0.1062 -0.13838,0 -0.15749,0.0777 -0.0731,0.29753 0.0433,0.11288 0.0688,0.11859 0.12614,0.0282 0.0395,-0.0623 0.0724,-0.16111 0.0731,-0.21952 z m -69.84548,0.0722 c 0.0641,-0.0406 0.10135,-0.11942 0.0828,-0.17513 -0.0218,-0.0654 -0.0903,-0.0388 -0.19344,0.0751 -0.16223,0.17926 -0.10134,0.2343 0.11066,0.1 z m 17.89646,-0.0915 c -0.0836,-0.0923 -0.19087,-0.14386 -0.23843,-0.11447 -0.0515,0.0318 -0.0231,0.0998 0.0701,0.16791 0.23474,0.17165 0.34142,0.13779 0.16836,-0.0534 z m -0.38413,-0.17192 c 0,-0.0467 -0.0382,-0.085 -0.0849,-0.085 -0.0467,0 -0.085,0.0382 -0.085,0.085 0,0.0467 0.0382,0.085 0.085,0.085 0.0467,0 0.0849,-0.0382 0.0849,-0.085 z m -68.965283,-0.61594 c -0.0171,-0.035 -0.06704,-0.0637 -0.111,-0.0637 -0.0951,0 -0.105747,0.34669 -0.01741,0.56652 0.04914,0.12229 0.07292,0.0919 0.111,-0.14172 0.02664,-0.16355 0.0345,-0.32603 0.01741,-0.36107 z m 51.973583,0.43693 c 0,-0.12213 -0.14741,-0.0871 -0.19898,0.0473 -0.0316,0.0823 -0.006,0.10744 0.0759,0.0759 0.0677,-0.026 0.12311,-0.0814 0.12311,-0.12312 z m 0.50975,-0.28624 c 0,-0.13256 -0.17884,-0.1016 -0.25704,0.0445 -0.0878,0.16401 -0.0811,0.17097 0.0807,0.0844 0.097,-0.0519 0.17635,-0.10989 0.17635,-0.12886 z m 16.05716,0.12542 c 0,-0.0467 -0.0382,-0.085 -0.085,-0.085 -0.0467,0 -0.0849,0.0382 -0.0849,0.085 0,0.0467 0.0382,0.085 0.0849,0.085 0.0467,0 0.085,-0.0382 0.085,-0.085 z m -44.603219,-0.38232 c 0,-0.0701 -0.05735,-0.12743 -0.127438,-0.12743 -0.07009,0 -0.127437,0.0573 -0.127437,0.12743 0,0.0701 0.05735,0.12744 0.127437,0.12744 0.07009,0 0.127438,-0.0573 0.127438,-0.12744 z m 28.970849,-0.0586 c 0,-0.11167 -0.19309,-0.0417 -0.23542,0.0853 -0.0207,0.0621 0.0182,0.0811 0.10089,0.0493 0.074,-0.0284 0.13453,-0.0889 0.13453,-0.13457 z m 14.86775,0.0162 c 0,-0.0467 -0.0382,-0.085 -0.085,-0.085 -0.0467,0 -0.085,0.0382 -0.085,0.085 0,0.0467 0.0382,0.0849 0.085,0.0849 0.0467,0 0.085,-0.0382 0.085,-0.0849 z m 53.60882,-0.38733 c 0,-0.29323 -0.0322,-0.45238 -0.0849,-0.41978 -0.13548,0.0837 -0.0888,0.89206 0.0516,0.89206 0.0184,0 0.0334,-0.21253 0.0334,-0.47228 z m -68.22169,0.21741 c 0,-0.0467 -0.0169,-0.085 -0.0375,-0.085 -0.0206,0 -0.0611,0.0382 -0.09,0.085 -0.0289,0.0467 -0.012,0.085 0.0375,0.085 0.0495,0 0.09,-0.0382 0.09,-0.085 z m 14.35799,0.0475 c 0,-0.0206 -0.0382,-0.0611 -0.085,-0.09 -0.0467,-0.0289 -0.085,-0.012 -0.085,0.0375 0,0.0495 0.0382,0.09 0.085,0.09 0.0467,0 0.085,-0.0168 0.085,-0.0375 z m -13.84824,-0.30237 c 0,-0.0467 -0.0573,-0.0849 -0.12744,-0.0849 -0.0701,0 -0.12743,0.0382 -0.12743,0.0849 0,0.0467 0.0573,0.085 0.12743,0.085 0.0701,0 0.12744,-0.0382 0.12744,-0.085 z m 0.25488,-0.16992 c 0,-0.0467 -0.0382,-0.0849 -0.085,-0.0849 -0.0467,0 -0.085,0.0382 -0.085,0.0849 0,0.0467 0.0382,0.085 0.085,0.085 0.0467,0 0.085,-0.0382 0.085,-0.085 z m 11.4694,-0.5947 c 0,-0.0467 -0.0382,-0.085 -0.085,-0.085 -0.0467,0 -0.085,0.0382 -0.085,0.085 0,0.0467 0.0382,0.0849 0.085,0.0849 0.0467,0 0.085,-0.0382 0.085,-0.0849 z m -0.25488,-0.17493 c 0,-0.044 -0.0573,-0.0799 -0.12744,-0.0799 -0.13138,0 -0.16878,0.10025 -0.0731,0.19592 0.0679,0.0679 0.20054,-0.009 0.20054,-0.11597 z m -9.77023,0.005 c 0,-0.0467 -0.0168,-0.085 -0.0375,-0.085 -0.0206,0 -0.0611,0.0382 -0.09,0.085 -0.0289,0.0467 -0.012,0.085 0.0375,0.085 0.0495,0 0.09,-0.0382 0.09,-0.085 z m 0.33984,-0.085 c 0,-0.0467 -0.0382,-0.0849 -0.085,-0.0849 -0.0467,0 -0.085,0.0382 -0.085,0.0849 0,0.0467 0.0382,0.085 0.085,0.085 0.0467,0 0.085,-0.0382 0.085,-0.085 z m 0.42479,-0.16992 c 0,-0.0467 -0.0405,-0.0849 -0.09,-0.0849 -0.0495,0 -0.0664,0.0382 -0.0375,0.0849 0.0289,0.0467 0.0694,0.085 0.09,0.085 0.0206,0 0.0375,-0.0382 0.0375,-0.085 z m 8.24097,0 c 0,-0.0467 -0.0787,-0.0849 -0.17492,-0.0849 -0.0962,0 -0.15131,0.0382 -0.12243,0.0849 0.0289,0.0467 0.1076,0.085 0.17493,0.085 0.0673,0 0.12242,-0.0382 0.12242,-0.085 z m -64.501847,-3.44082 c 8.84e-4,-1.30835 -0.02752,-2.5891 -0.06306,-2.8461 -0.03609,-0.26122 -0.06415,1.03136 -0.0636,2.93107 8.83e-4,1.8835 0.02867,3.15218 0.06307,2.8461 0.03415,-0.30372 0.06276,-1.6227 0.0636,-2.93107 z m 56.685667,3.27091 c 0,-0.0467 -0.0551,-0.085 -0.12242,-0.085 -0.0673,0 -0.14605,0.0382 -0.17493,0.085 -0.0289,0.0467 0.0262,0.085 0.12242,0.085 0.0962,0 0.17493,-0.0382 0.17493,-0.085 z m 7.39139,0 c 0,-0.0467 -0.0765,-0.085 -0.16991,-0.085 -0.0935,0 -0.16992,0.0382 -0.16992,0.085 0,0.0467 0.0765,0.085 0.16992,0.085 0.0935,0 0.16991,-0.0382 0.16991,-0.085 z m -49.210452,-0.10089 c -0.0525,-0.15753 -0.235403,-0.18366 -0.235403,-0.0336 0,0.074 0.06053,0.13451 0.134515,0.13451 0.07399,0 0.119385,-0.0454 0.100888,-0.10089 z m 42.280832,-0.0779 c -0.0593,-0.0959 -0.29185,-0.10013 -0.29185,-0.005 0,0.11957 0.0956,0.17465 0.22021,0.12685 0.0653,-0.0251 0.0975,-0.0797 0.0716,-0.12159 z m 6.33491,0.0564 c 0,-0.0897 -0.16304,-0.12734 -0.21154,-0.0489 -0.0293,0.0475 0.006,0.0863 0.0791,0.0863 0.0728,0 0.13245,-0.0169 0.13245,-0.0375 z m -5.77717,-0.13245 c 0.10305,-0.0666 0.0909,-0.0826 -0.0637,-0.0836 -0.10513,-8.9e-4 -0.19115,0.0369 -0.19115,0.0836 0,0.10645 0.0902,0.10645 0.25488,0 z m 5.30627,0.006 c 0.0269,-0.0435 0.0135,-0.10098 -0.0298,-0.12771 -0.11081,-0.0685 -0.35774,0.0388 -0.30091,0.13074 0.0615,0.0996 0.26846,0.0977 0.3307,-0.003 z m -4.54165,-0.17578 c 0,-0.0467 -0.0956,-0.085 -0.2124,-0.085 -0.11681,0 -0.21239,0.0382 -0.21239,0.085 0,0.0467 0.0956,0.085 0.21239,0.085 0.11682,0 0.2124,-0.0382 0.2124,-0.085 z m 3.82314,0 c 0,-0.0467 -0.0956,-0.085 -0.2124,-0.085 -0.11682,0 -0.2124,0.0382 -0.2124,0.085 0,0.0467 0.0956,0.085 0.2124,0.085 0.11681,0 0.2124,-0.0382 0.2124,-0.085 z m -1.01951,-0.16992 c 0,-0.0523 -0.42479,-0.085 -1.10446,-0.085 -0.67967,0 -1.10446,0.0327 -1.10446,0.085 0,0.0523 0.42479,0.085 1.10446,0.085 0.67967,0 1.10446,-0.0327 1.10446,-0.085 z M 78.171665,254.856 c 0.01851,-0.0555 -0.0269,-0.10089 -0.100888,-0.10089 -0.07398,0 -0.134514,0.0605 -0.134514,0.13452 0,0.15004 0.182897,0.1239 0.235402,-0.0336 z m 104.278415,-2.07617 c 0.0685,-0.22035 -0.0291,-1.3675 -0.10601,-1.24598 -0.0992,0.15674 -0.10176,1.35218 -0.003,1.35218 0.0418,0 0.0907,-0.0478 0.10889,-0.1062 z M 78.91366,250.7614 c 0.02907,-0.0471 -0.0085,-0.10912 -0.08361,-0.13793 -0.162673,-0.0624 -0.253329,0.006 -0.175136,0.13289 0.07055,0.11414 0.189874,0.11647 0.258742,0.005 z m 7.731224,0 c 0.02907,-0.0471 -0.0085,-0.10912 -0.08361,-0.13793 -0.162669,-0.0624 -0.253329,0.006 -0.175136,0.13289 0.07055,0.11414 0.189878,0.11647 0.258742,0.005 z m 95.658976,-1.07623 -0.0676,-0.40994 -0.0814,0.35606 c -0.0924,0.40416 -0.0253,0.70578 0.12393,0.5566 0.0611,-0.0611 0.0697,-0.23273 0.0251,-0.50272 z M 61.065929,249.077 c -0.02673,-0.81075 -0.05435,-0.98804 -0.121368,-0.77879 -0.114798,0.35845 -0.100322,1.03878 0.02125,0.99826 0.05841,-0.0195 0.103472,-0.11823 0.100132,-0.21947 z m 121.114441,-0.9437 c 0,-0.18414 -0.0382,-0.35844 -0.085,-0.38732 -0.0519,-0.0321 -0.085,0.0982 -0.085,0.33482 0,0.21303 0.0382,0.38733 0.085,0.38733 0.0467,0 0.085,-0.15067 0.085,-0.33483 z M 61.199437,246.67898 c 0,-0.2649 -0.0326,-0.40966 -0.08496,-0.37729 -0.04673,0.0289 -0.08496,0.22229 -0.08496,0.4298 0,0.20752 0.03821,0.3773 0.08496,0.3773 0.04673,0 0.08496,-0.19342 0.08496,-0.42981 z m 120.811013,-0.0849 c 0,-0.20827 -0.0337,-0.32406 -0.085,-0.29234 -0.0467,0.0289 -0.0849,0.18406 -0.0849,0.34484 0,0.16079 0.0382,0.29234 0.0849,0.29234 0.0467,0 0.085,-0.15518 0.085,-0.34484 z m -0.16991,-1.2319 c 0,-0.17996 -0.0344,-0.28111 -0.085,-0.24987 -0.14085,0.0871 -0.0931,0.55224 0.0566,0.55224 0.0156,0 0.0283,-0.13607 0.0283,-0.30237 z M 61.369351,245.24472 c 0,-0.13743 -0.03821,-0.2735 -0.08496,-0.30237 -0.05056,-0.0312 -0.08496,0.0699 -0.08496,0.24986 0,0.1663 0.03821,0.30237 0.08496,0.30237 0.04673,0 0.08496,-0.11244 0.08496,-0.24986 z m 120.384929,-0.83337 c -8.9e-4,-0.0818 -0.0336,-0.19966 -0.0731,-0.26199 -0.0573,-0.0904 -0.0828,-0.0847 -0.12613,0.0282 -0.09,0.23449 -0.0617,0.38249 0.0731,0.38249 0.0701,0 0.12685,-0.0669 0.12614,-0.14868 z m -120.264038,-0.45871 -0.06591,-0.19971 -0.05658,0.21239 c -0.06687,0.25101 -0.01356,0.389 0.10459,0.27084 0.04748,-0.0475 0.05523,-0.1704 0.01789,-0.28352 z m 120.095418,-0.57701 c 0,-0.0907 -0.0382,-0.18853 -0.085,-0.21741 -0.0482,-0.0298 -0.085,0.0416 -0.085,0.1649 0,0.11958 0.0382,0.21741 0.085,0.21741 0.0467,0 0.085,-0.0742 0.085,-0.1649 z M 61.630601,243.26229 c -0.0035,-0.0339 -0.0064,-0.1212 -0.0064,-0.19404 0,-0.0729 -0.03821,-0.10883 -0.08496,-0.0799 -0.114684,0.0709 -0.108875,0.40444 0.0064,0.36603 0.05024,-0.0167 0.08847,-0.0582 0.08496,-0.092 z m 119.785139,-0.83123 c 0,-0.0962 -0.0382,-0.15131 -0.085,-0.12243 -0.0467,0.0289 -0.085,0.1076 -0.085,0.17493 0,0.0673 0.0382,0.12243 0.085,0.12243 0.0467,0 0.085,-0.0787 0.085,-0.17493 z m -119.621595,-0.0799 c 0,-0.0935 -0.03821,-0.16991 -0.08496,-0.16991 -0.04673,0 -0.08496,0.0765 -0.08496,0.16991 0,0.0935 0.03821,0.16992 0.08496,0.16992 0.04673,0 0.08496,-0.0765 0.08496,-0.16992 z m 119.451675,-0.6117 c 0,-0.13724 -0.0251,-0.16178 -0.0945,-0.0924 -0.052,0.052 -0.0688,0.13611 -0.0375,0.18691 0.0879,0.14219 0.13202,0.11058 0.13202,-0.0945 z m -119.281756,-0.1105 c 0,-0.0701 -0.03821,-0.12743 -0.08496,-0.12743 -0.04673,0 -0.08496,0.0573 -0.08496,0.12743 0,0.0701 0.03821,0.12744 0.08496,0.12744 0.04673,0 0.08496,-0.0573 0.08496,-0.12744 z m 119.144456,-0.58979 c -0.0524,-0.13645 -0.0653,-0.13775 -0.13483,-0.0135 -0.0918,0.16401 0,0.35758 0.1146,0.24263 0.043,-0.043 0.0521,-0.14609 0.0202,-0.22909 z M 62.066011,240.88983 c -0.07929,-0.0793 -0.101947,-0.0566 -0.101947,0.10194 0,0.1586 0.02266,0.18125 0.101947,0.10196 0.07929,-0.0793 0.07929,-0.12461 0,-0.2039 z m 118.924939,-0.32284 c 0,-0.0935 -0.0382,-0.16992 -0.085,-0.16992 -0.0467,0 -0.085,0.0765 -0.085,0.16992 0,0.0934 0.0382,0.16991 0.085,0.16991 0.0467,0 0.085,-0.0765 0.085,-0.16991 z M 62.218939,240.43453 c 0,-0.0728 -0.03883,-0.10844 -0.08634,-0.0791 -0.0475,0.0293 -0.06435,0.089 -0.03746,0.13244 0.07283,0.11784 0.12381,0.0959 0.12381,-0.0534 z m 0.169914,-0.46727 c 0,-0.0962 -0.03821,-0.1513 -0.08496,-0.12243 -0.04673,0.0289 -0.08496,0.10761 -0.08496,0.17494 0,0.0673 0.03821,0.12242 0.08496,0.12242 0.04673,0 0.08496,-0.0787 0.08496,-0.17493 z m 118.432177,0.0475 c 0,-0.0701 -0.0382,-0.12743 -0.085,-0.12743 -0.0467,0 -0.085,0.0573 -0.085,0.12743 0,0.0701 0.0382,0.12744 0.085,0.12744 0.0467,0 0.085,-0.0573 0.085,-0.12744 z M 62.558772,239.49999 c 0,-0.0673 -0.03821,-0.12243 -0.08496,-0.12243 -0.04673,0 -0.08496,0.0787 -0.08496,0.17493 0,0.0962 0.03821,0.1513 0.08496,0.12243 0.04673,-0.0289 0.08496,-0.1076 0.08496,-0.17493 z m 118.092338,0.0305 c 0,-0.13724 -0.0251,-0.16179 -0.0945,-0.0924 -0.052,0.052 -0.0689,0.13611 -0.0375,0.18691 0.0879,0.14219 0.13202,0.11058 0.13202,-0.0945 z M 62.72869,239.13683 c 0,-0.11062 -0.101002,-0.1842 -0.183154,-0.13341 -0.08786,0.0543 -0.0121,0.20421 0.103207,0.20421 0.04396,0 0.07995,-0.0318 0.07995,-0.0708 z m 117.7905,-0.10637 c -0.0274,-0.0443 -0.0859,-0.0581 -0.1302,-0.0308 -0.0443,0.0273 -0.0581,0.0859 -0.0308,0.13021 0.0273,0.0443 0.0859,0.0581 0.13021,0.0307 0.0443,-0.0273 0.0581,-0.0859 0.0307,-0.1302 z M 62.983566,238.26338 c 0,-0.0414 -0.03821,-0.0753 -0.08496,-0.0753 -0.04673,0 -0.08496,0.0742 -0.08496,0.1649 0,0.0907 -0.03888,0.18892 -0.08634,0.21827 -0.04749,0.0293 -0.06259,0.0918 -0.03357,0.13878 0.05021,0.0812 0.28982,-0.28809 0.28982,-0.4467 z m 117.370194,0.4345 c 0.0289,-0.0467 0.012,-0.085 -0.0375,-0.085 -0.0495,0 -0.09,0.0382 -0.09,0.085 0,0.0467 0.0169,0.085 0.0375,0.085 0.0206,0 0.0611,-0.0382 0.09,-0.085 z m -93.454372,-0.42479 c -0.04108,-0.0665 -0.08998,-0.0714 -0.146615,-0.0148 -0.04673,0.0467 -0.05722,0.12986 -0.02333,0.18472 0.04109,0.0665 0.08998,0.0714 0.146615,0.0148 0.04673,-0.0467 0.05722,-0.12986 0.02333,-0.18472 z m 93.326932,0.068 c 0,-0.13724 -0.0251,-0.16179 -0.0945,-0.0924 -0.052,0.052 -0.0689,0.13611 -0.0375,0.18691 0.0879,0.14219 0.13201,0.11059 0.13201,-0.0945 z m -0.15717,-0.28036 c 0,-0.0444 -0.0411,-0.0944 -0.0913,-0.11115 -0.0502,-0.0167 -0.0913,0.0333 -0.0913,0.11115 0,0.0779 0.0411,0.1279 0.0913,0.11115 0.0502,-0.0167 0.0913,-0.0668 0.0913,-0.11115 z M 63.15348,237.93325 c 0,-0.0467 -0.03821,-0.085 -0.08496,-0.085 -0.04673,0 -0.08496,0.0382 -0.08496,0.085 0,0.0467 0.03821,0.085 0.08496,0.085 0.04673,0 0.08496,-0.0382 0.08496,-0.085 z m 0.123811,-0.249 c 0.02686,-0.0435 0.01003,-0.10311 -0.03746,-0.13245 -0.04749,-0.0294 -0.08634,0.006 -0.08634,0.0791 0,0.14923 0.05099,0.1712 0.123811,0.0534 z m 0.131064,-0.34571 c 0,-0.0467 -0.03821,-0.0849 -0.08496,-0.0849 -0.04673,0 -0.08496,0.0382 -0.08496,0.0849 0,0.0467 0.03821,0.085 0.08496,0.085 0.04673,0 0.08496,-0.0382 0.08496,-0.085 z m 25.275162,-0.25487 c -0.04108,-0.0665 -0.08998,-0.0714 -0.146615,-0.0148 -0.04673,0.0467 -0.05722,0.12986 -0.02333,0.18472 0.04108,0.0665 0.08998,0.0714 0.146615,0.0148 0.04673,-0.0467 0.05722,-0.12986 0.02333,-0.18472 z m -25.105243,0 c 0,-0.0467 -0.03821,-0.085 -0.08496,-0.085 -0.04673,0 -0.08496,0.0382 -0.08496,0.085 0,0.0467 0.03821,0.0849 0.08496,0.0849 0.04673,0 0.08496,-0.0382 0.08496,-0.0849 z m 115.968386,-0.16992 c -0.05,-0.0934 -0.12663,-0.16992 -0.17025,-0.16992 -0.0436,0 -0.0573,-0.0573 -0.0304,-0.12743 0.0316,-0.0823 -0.002,-0.12744 -0.0947,-0.12744 -0.0846,0 -0.12329,0.0436 -0.0941,0.1062 0.0272,0.0584 0.0726,0.17105 0.10076,0.25032 0.0282,0.0793 0.11423,0.16086 0.19121,0.1813 0.077,0.0205 0.15086,0.0416 0.16419,0.047 0.0133,0.005 -0.0167,-0.0666 -0.0667,-0.16006 z M 63.748192,236.74383 c 0,-0.0467 -0.03821,-0.085 -0.08496,-0.085 -0.04673,0 -0.08496,0.0382 -0.08496,0.085 0,0.0467 0.03821,0.085 0.08496,0.085 0.04673,0 0.08496,-0.0382 0.08496,-0.085 z m 0.339833,-0.46525 c 0,-0.13257 -0.178847,-0.1016 -0.25704,0.0445 -0.08778,0.16401 -0.08114,0.17097 0.08069,0.0844 0.09699,-0.0519 0.176351,-0.1099 0.176351,-0.12886 z m 115.011665,-0.1334 c -0.057,-0.0913 -0.13269,-0.16597 -0.16818,-0.16597 -0.0355,0 -0.0645,-0.0527 -0.0645,-0.11704 0,-0.15317 -0.22517,-0.3396 -0.28779,-0.23828 -0.0264,0.0428 0.0275,0.14611 0.11987,0.22969 0.0924,0.0836 0.16792,0.18588 0.16792,0.22734 0,0.11258 0.20316,0.31083 0.27437,0.26775 0.0341,-0.0206 0.0153,-0.1122 -0.0417,-0.20349 z M 64.208514,236.0126 c 0.07391,-0.0284 0.134387,-0.10483 0.134387,-0.16992 0,-0.17023 -0.111985,-0.14567 -0.23516,0.0516 -0.11482,0.18386 -0.103767,0.19684 0.100773,0.11835 z m 0.389262,-0.64891 c 0,-0.0474 -0.05635,-0.0382 -0.127438,0.0208 -0.07009,0.0582 -0.127437,0.144 -0.127437,0.19073 0,0.0474 0.05635,0.0382 0.127437,-0.0208 0.07009,-0.0582 0.127438,-0.144 0.127438,-0.19072 z m 113.869034,-0.0641 c -0.0244,-0.0935 -0.0782,-0.16992 -0.11948,-0.16992 -0.11498,0 -0.0892,0.23502 0.0311,0.28357 0.0584,0.0236 0.11218,0.0459 0.11949,0.0496 0.007,0.004 -0.007,-0.0698 -0.0311,-0.16321 z M 65.222273,234.68052 c 0.08647,-0.0863 0.132447,-0.1816 0.102186,-0.21187 -0.05506,-0.0551 -0.556764,0.43092 -0.556764,0.53933 0,0.0651 0.219953,-0.0934 0.454578,-0.32746 z M 177.74335,234.3958 c -0.71875,-0.79846 -1.51008,-1.50548 -1.51008,-1.34919 0,0.0937 1.59808,1.65822 1.69384,1.65822 0.0519,0 -0.0308,-0.13906 -0.18376,-0.30903 z M 66.542781,233.38009 c 0.10534,-0.12115 0.17313,-0.23867 0.150639,-0.26116 -0.05113,-0.0511 -0.481433,0.31695 -0.481433,0.4118 0,0.13251 0.140072,0.0687 0.330794,-0.15064 z m 0.773669,-0.62931 c 0,-0.0467 -0.03826,-0.0849 -0.08496,-0.0849 -0.04673,0 -0.08496,0.0382 -0.08496,0.0849 0,0.0467 0.03821,0.085 0.08496,0.085 0.04673,0 0.08496,-0.0382 0.08496,-0.085 z m 108.66195,0.0204 c 0,-0.0355 -0.0765,-0.11227 -0.16992,-0.17063 -0.18386,-0.11482 -0.19684,-0.10377 -0.11835,0.10077 0.0515,0.13436 0.28827,0.19173 0.28827,0.0699 z M 67.881361,232.26785 c -0.07213,-0.0721 -0.310035,0.0873 -0.310035,0.20781 0,0.11116 0.02637,0.10765 0.170435,-0.0227 0.09374,-0.0848 0.15656,-0.16813 0.1396,-0.1851 z m 107.459849,0.0581 c 0.0289,-0.0467 -0.009,-0.085 -0.085,-0.085 -0.0756,0 -0.11384,0.0382 -0.085,0.085 0.0289,0.0467 0.0671,0.085 0.085,0.085 0.0178,0 0.0561,-0.0382 0.085,-0.085 z M 68.231544,232.08696 c 0.02067,-0.0621 -0.01816,-0.0811 -0.100887,-0.0493 -0.074,0.0284 -0.134541,0.0889 -0.134541,0.13458 0,0.11167 0.193093,0.0417 0.235428,-0.0853 z m 106.642386,-0.10083 c 0,-0.0467 -0.0382,-0.0849 -0.0849,-0.0849 -0.0467,0 -0.085,0.0382 -0.085,0.0849 0,0.0467 0.0382,0.085 0.085,0.085 0.0467,0 0.0849,-0.0382 0.0849,-0.085 z M 68.675785,231.86375 c 0,-0.0897 -0.163044,-0.12735 -0.211538,-0.0489 -0.02933,0.0475 0.0062,0.0863 0.07909,0.0863 0.07284,0 0.132452,-0.0169 0.132452,-0.0375 z m 0.254876,-0.17493 c 0,-0.0701 -0.03596,-0.12744 -0.07995,-0.12744 -0.107134,0 -0.183856,0.13267 -0.115973,0.20055 0.09567,0.0957 0.195921,0.0583 0.195921,-0.0731 z m 105.518479,0.0425 c 0,-0.0467 -0.0382,-0.085 -0.085,-0.085 -0.0467,0 -0.0849,0.0382 -0.0849,0.085 0,0.0467 0.0382,0.0849 0.0849,0.0849 0.0467,0 0.085,-0.0382 0.085,-0.0849 z M 69.270493,231.52159 c 0,-0.076 -0.04981,-0.10566 -0.127437,-0.0759 -0.07009,0.0269 -0.127438,0.083 -0.127438,0.12477 0,0.0418 0.05735,0.0759 0.127438,0.0759 0.07009,0 0.127437,-0.0561 0.127437,-0.12477 z m 104.923777,0.0398 c 0,-0.0467 -0.0573,-0.0849 -0.12744,-0.0849 -0.0701,0 -0.12744,0.0382 -0.12744,0.0849 0,0.0467 0.0573,0.085 0.12744,0.085 0.0701,0 0.12744,-0.0382 0.12744,-0.085 z M 70.459914,230.96668 c 0,-0.0467 0.05735,-0.0849 0.127438,-0.0849 0.07009,0 0.127438,-0.0382 0.127438,-0.085 0,-0.0467 -0.05735,-0.085 -0.127438,-0.085 -0.07009,0 -0.127438,0.0382 -0.127438,0.085 0,0.0467 -0.07872,0.085 -0.174928,0.085 -0.09622,0 -0.151307,0.0382 -0.122428,0.0849 0.02889,0.0467 0.107602,0.085 0.174932,0.085 0.06733,0 0.122424,-0.0382 0.122424,-0.085 z m 102.629886,0 c 0,-0.0467 -0.0405,-0.0849 -0.09,-0.0849 -0.0495,0 -0.0663,0.0382 -0.0375,0.0849 0.0289,0.0467 0.0694,0.085 0.09,0.085 0.0206,0 0.0375,-0.0382 0.0375,-0.085 z m -0.67966,-0.34484 c 0,-0.044 -0.0574,-0.0799 -0.12744,-0.0799 -0.13138,0 -0.16879,0.10025 -0.0731,0.19593 0.0679,0.0679 0.20055,-0.009 0.20055,-0.11598 z m -101.355518,0.0525 c 0,-0.0897 -0.163044,-0.12734 -0.211537,-0.0489 -0.02933,0.0475 0.0062,0.0864 0.07909,0.0864 0.07284,0 0.132447,-0.0168 0.132447,-0.0375 z M 172.0703,230.54189 c 0,-0.0467 -0.0382,-0.085 -0.0849,-0.085 -0.0467,0 -0.085,0.0382 -0.085,0.085 0,0.0467 0.0382,0.085 0.085,0.085 0.0467,0 0.0849,-0.0382 0.0849,-0.085 z M 71.734292,230.37198 c 0,-0.0467 -0.03821,-0.085 -0.08496,-0.085 -0.04673,0 -0.08496,0.0382 -0.08496,0.085 0,0.0467 0.03821,0.0849 0.08496,0.0849 0.04673,0 0.08496,-0.0382 0.08496,-0.0849 z m 99.996178,0 c 0,-0.0467 -0.0787,-0.085 -0.17493,-0.085 -0.0962,0 -0.1513,0.0382 -0.12243,0.085 0.0289,0.0467 0.10761,0.0849 0.17494,0.0849 0.0673,0 0.12242,-0.0382 0.12242,-0.0849 z m -99.486427,-0.16992 c 0,-0.0467 -0.07646,-0.085 -0.169918,-0.085 -0.09345,0 -0.169915,0.0382 -0.169915,0.085 0,0.0467 0.07646,0.085 0.169915,0.085 0.09346,0 0.169918,-0.0382 0.169918,-0.085 z m 99.061637,0 c 0,-0.0467 -0.0382,-0.085 -0.085,-0.085 -0.0467,0 -0.085,0.0382 -0.085,0.085 0,0.0467 0.0382,0.085 0.085,0.085 0.0467,0 0.085,-0.0382 0.085,-0.085 z m -0.33984,-0.12243 c 0,-0.0897 -0.16304,-0.12734 -0.21153,-0.0489 -0.0294,0.0475 0.006,0.0863 0.0791,0.0863 0.0728,0 0.13245,-0.0169 0.13245,-0.0375 z m -98.042127,-0.13246 c 0,-0.0467 -0.04051,-0.085 -0.08997,-0.085 -0.04949,0 -0.06635,0.0382 -0.03746,0.085 0.02889,0.0467 0.06937,0.085 0.08997,0.085 0.02059,0 0.03746,-0.0382 0.03746,-0.085 z m 97.574857,0 c 0.0289,-0.0467 -0.0284,-0.085 -0.12743,-0.085 -0.099,0 -0.15632,0.0382 -0.12744,0.085 0.0289,0.0467 0.0862,0.085 0.12744,0.085 0.0412,0 0.0986,-0.0382 0.12743,-0.085 z m -97.107587,-0.16992 c 0.02889,-0.0467 -0.0072,-0.085 -0.07995,-0.085 -0.07284,0 -0.132448,0.0382 -0.132448,0.085 0,0.0467 0.03596,0.085 0.07994,0.085 0.04396,0 0.103574,-0.0382 0.132452,-0.085 z m 96.640317,0 c 0,-0.0467 -0.0596,-0.085 -0.13245,-0.085 -0.0729,0 -0.10883,0.0382 -0.0799,0.085 0.0289,0.0467 0.0885,0.085 0.13246,0.085 0.0439,0 0.0799,-0.0382 0.0799,-0.085 z m -96.003128,-0.16991 c 0,-0.0467 -0.07646,-0.085 -0.169918,-0.085 -0.09345,0 -0.169915,0.0382 -0.169915,0.085 0,0.0467 0.07646,0.085 0.169915,0.085 0.09346,0 0.169918,-0.0382 0.169918,-0.085 z m 95.493378,0 c 0,-0.0467 -0.0765,-0.085 -0.16992,-0.085 -0.0934,0 -0.16992,0.0382 -0.16992,0.085 0,0.0467 0.0765,0.085 0.16992,0.085 0.0935,0 0.16992,-0.0382 0.16992,-0.085 z m -95.138737,-0.1891 c -0.04673,-0.0467 -0.130605,-0.0567 -0.186388,-0.0223 -0.07707,0.0476 -0.07471,0.0792 0.0098,0.13142 0.144932,0.0896 0.287328,0.001 0.176612,-0.10914 z m 94.582017,0.0119 c -0.0273,-0.0443 -0.0859,-0.0581 -0.13021,-0.0307 -0.0443,0.0273 -0.0581,0.0859 -0.0307,0.1302 0.0273,0.0443 0.0859,0.0581 0.1302,0.0308 0.0443,-0.0274 0.0581,-0.0859 0.0308,-0.13021 z m -94.129551,-0.0777 c 0.02889,-0.0467 -0.0094,-0.085 -0.08496,-0.085 -0.0756,0 -0.113836,0.0382 -0.08496,0.085 0.02889,0.0467 0.06711,0.085 0.08496,0.085 0.01785,0 0.05608,-0.0382 0.08496,-0.085 z m 93.666761,0.009 c 0,-0.0955 -0.22098,-0.18457 -0.28904,-0.11651 -0.10227,0.10226 -0.0465,0.19238 0.11913,0.19238 0.0934,0 0.16991,-0.0342 0.16991,-0.0759 z m -93.029572,-0.17901 c 0,-0.0467 -0.05735,-0.0849 -0.127437,-0.0849 -0.07009,0 -0.127438,0.0382 -0.127438,0.0849 0,0.0467 0.05735,0.085 0.127438,0.085 0.07009,0 0.127437,-0.0382 0.127437,-0.085 z m 92.477352,0 c 0.0289,-0.0467 -0.007,-0.0849 -0.0799,-0.0849 -0.0728,0 -0.13245,0.0382 -0.13245,0.0849 0,0.0467 0.036,0.085 0.08,0.085 0.0439,0 0.10357,-0.0382 0.13245,-0.085 z m -91.882643,-0.16991 c 0,-0.0467 -0.05509,-0.085 -0.122424,-0.085 -0.06733,0 -0.146054,0.0382 -0.174933,0.085 -0.02889,0.0467 0.0262,0.085 0.122428,0.085 0.09621,0 0.174929,-0.0382 0.174929,-0.085 z m 91.287923,0 c -0.0289,-0.0467 -0.0885,-0.085 -0.13244,-0.085 -0.044,0 -0.0799,0.0382 -0.0799,0.085 0,0.0467 0.0596,0.085 0.13245,0.085 0.0728,0 0.10882,-0.0382 0.0799,-0.085 z m -90.737026,-0.17208 c -0.02562,-0.0414 -0.105919,-0.0526 -0.178431,-0.0248 -0.102977,0.0395 -0.107925,0.0654 -0.02258,0.11812 0.128865,0.0796 0.267988,0.015 0.201006,-0.0933 z m 90.049926,0.12069 c 0.17292,-0.0663 0.0887,-0.20349 -0.12501,-0.20349 -0.16492,0 -0.21493,0.0916 -0.10827,0.19824 0.0689,0.0689 0.0674,0.0689 0.23328,0.005 z m -89.411403,-0.20351 c 0,-0.0467 -0.05735,-0.085 -0.127437,-0.085 -0.07009,0 -0.127438,0.0382 -0.127438,0.085 0,0.0467 0.05735,0.085 0.127438,0.085 0.07009,0 0.127437,-0.0382 0.127437,-0.085 z m 88.818623,0.009 c 0.0258,-0.0418 -0.006,-0.0966 -0.0716,-0.12158 -0.12457,-0.0478 -0.22021,0.007 -0.22021,0.12684 0,0.0949 0.23256,0.0907 0.29185,-0.005 z M 78.021224,228.5878 c 0,-0.0467 -0.09784,-0.085 -0.217409,-0.085 -0.123312,0 -0.194684,0.0368 -0.164904,0.085 0.02889,0.0467 0.126713,0.085 0.217409,0.085 0.0907,0 0.164904,-0.0382 0.164904,-0.085 z m 87.464796,0 c 0.0289,-0.0467 -0.0262,-0.085 -0.12243,-0.085 -0.0962,0 -0.17493,0.0382 -0.17493,0.085 0,0.0467 0.0551,0.085 0.12243,0.085 0.0673,0 0.14605,-0.0382 0.17493,-0.085 z m -86.700169,-0.16992 c 0,-0.0467 -0.09558,-0.085 -0.2124,-0.085 -0.116817,0 -0.212394,0.0382 -0.212394,0.085 0,0.0467 0.09558,0.085 0.212394,0.085 0.116818,0 0.2124,-0.0382 0.2124,-0.085 z m 85.978019,0 c 0,-0.0467 -0.0551,-0.085 -0.12243,-0.085 -0.0673,0 -0.14605,0.0382 -0.17492,0.085 -0.0289,0.0467 0.0262,0.085 0.12242,0.085 0.0962,0 0.17493,-0.0382 0.17493,-0.085 z m -85.317827,-0.15399 c 0.03919,-0.11751 -0.287015,-0.13861 -0.358352,-0.0232 -0.05076,0.0821 0.11035,0.17648 0.245077,0.14355 0.04382,-0.0107 0.09478,-0.0649 0.113275,-0.12036 z m 84.519347,-0.0332 c -0.16979,-0.095 -0.37735,0.006 -0.21655,0.10498 0.0591,0.0366 0.163,0.0452 0.23076,0.0192 0.1038,-0.0398 0.10157,-0.0594 -0.0142,-0.12417 z m -83.751531,-0.0741 c -0.01674,-0.0502 -0.05816,-0.0885 -0.09204,-0.085 -0.03388,0.004 -0.1212,0.006 -0.194043,0.006 -0.07285,0 -0.108826,0.0382 -0.07995,0.085 0.07088,0.11468 0.404446,0.10887 0.36603,-0.006 z m 83.063241,0.006 c 0.0289,-0.0467 -0.0262,-0.085 -0.12243,-0.085 -0.0962,0 -0.17493,0.0382 -0.17493,0.085 0,0.0467 0.0551,0.085 0.12243,0.085 0.0673,0 0.14605,-0.0382 0.17493,-0.085 z m -82.282331,-0.16992 c 0,-0.0467 -0.09558,-0.0849 -0.212395,-0.0849 -0.116817,0 -0.212394,0.0382 -0.212394,0.0849 0,0.0467 0.09558,0.085 0.212394,0.085 0.116818,0 0.212395,-0.0382 0.212395,-0.085 z m 81.517701,0 c 0.0306,-0.0496 -0.0558,-0.0849 -0.20738,-0.0849 -0.14294,0 -0.25989,0.0382 -0.25989,0.0849 0,0.0467 0.0933,0.085 0.20738,0.085 0.11406,0 0.23101,-0.0382 0.25989,-0.085 z M 81.844357,227.8232 c 0,-0.0467 -0.0742,-0.085 -0.164908,-0.085 -0.09069,0 -0.188531,0.0382 -0.217405,0.085 -0.02978,0.0482 0.04157,0.085 0.164905,0.085 0.119569,0 0.217408,-0.0382 0.217408,-0.085 z m 79.818533,0 c -0.0289,-0.0467 -0.10761,-0.085 -0.17493,-0.085 -0.0673,0 -0.12243,0.0382 -0.12243,0.085 0,0.0467 0.0787,0.085 0.17493,0.085 0.0962,0 0.1513,-0.0382 0.12243,-0.085 z m -78.930099,-0.0791 c 0.07538,-0.12197 -0.103795,-0.1936 -0.315721,-0.12622 -0.184532,0.0587 -0.185169,0.0626 -0.0205,0.12695 0.232623,0.0909 0.279623,0.0908 0.336205,-8.8e-4 z m 78.004569,-0.10787 c -0.15039,-0.0842 -0.33579,-0.0143 -0.26519,0.0999 0.0242,0.0391 0.12473,0.05 0.22346,0.0242 0.15637,-0.0409 0.16176,-0.0569 0.0417,-0.12406 z m -77.108874,-0.0679 c 0,-0.0467 -0.09784,-0.085 -0.217409,-0.085 -0.123311,0 -0.194684,0.0368 -0.164904,0.085 0.02889,0.0467 0.126713,0.085 0.217405,0.085 0.0907,0 0.164908,-0.0382 0.164908,-0.085 z m 76.250274,0 c 0.0289,-0.0467 -0.0262,-0.085 -0.12243,-0.085 -0.0962,0 -0.20264,-0.003 -0.23652,-0.006 -0.0339,-0.004 -0.0753,0.0347 -0.092,0.085 -0.0384,0.11525 0.38004,0.12116 0.45099,0.006 z m -75.315733,-0.16992 c 0,-0.0467 -0.09558,-0.085 -0.212395,-0.085 -0.116817,0 -0.212394,0.0382 -0.212394,0.085 0,0.0467 0.09558,0.085 0.212394,0.085 0.116818,0 0.212395,-0.0382 0.212395,-0.085 z m 74.423663,0 c 0,-0.0467 -0.11469,-0.085 -0.25487,-0.085 -0.14019,0 -0.25488,0.0382 -0.25488,0.085 0,0.0467 0.11469,0.085 0.25488,0.085 0.14018,0 0.25487,-0.0382 0.25487,-0.085 z m -73.404161,-0.16992 c 0,-0.0467 -0.0742,-0.0849 -0.164904,-0.0849 -0.09069,0 -0.18853,0.0382 -0.217409,0.0849 -0.02978,0.0482 0.04162,0.085 0.164904,0.085 0.11957,0 0.217409,-0.0382 0.217409,-0.085 z m 72.342181,0 c -0.0289,-0.0467 -0.14583,-0.0849 -0.25989,-0.0849 -0.11406,0 -0.20738,0.0382 -0.20738,0.0849 0,0.0467 0.11695,0.085 0.25989,0.085 0.15162,0 0.23802,-0.0354 0.20738,-0.085 z m -71.343177,-0.21873 c -0.0284,-0.0284 -0.140558,-0.0234 -0.249212,0.0112 -0.1891,0.0601 -0.190288,0.0655 -0.02765,0.12554 0.169525,0.0626 0.374794,-0.0387 0.276853,-0.1367 z m 70.238717,0.13754 c 0.15566,-0.0634 0.14998,-0.0745 -0.0677,-0.13167 -0.25798,-0.0678 -0.36402,-0.0207 -0.27565,0.12226 0.0643,0.10396 0.10836,0.10518 0.34333,0.009 z m -68.990805,-0.16642 c 0.02642,-0.0427 0.0013,-0.0932 -0.0555,-0.11221 -0.163212,-0.0544 -0.49523,0.0314 -0.443763,0.11466 0.06114,0.0989 0.437751,0.0971 0.499259,-0.003 z m 67.971305,-0.007 c 0.0307,-0.0497 -0.0574,-0.085 -0.2124,-0.085 -0.15496,0 -0.24311,0.0352 -0.2124,0.085 0.0289,0.0467 0.12446,0.0849 0.2124,0.0849 0.0879,0 0.18352,-0.0382 0.2124,-0.0849 z m -66.7774,-0.16992 c 0.03172,-0.0513 -0.08407,-0.085 -0.292343,-0.085 -0.189661,0 -0.344846,0.0382 -0.344846,0.085 0,0.0467 0.13155,0.085 0.292342,0.085 0.160783,0 0.315968,-0.0382 0.344847,-0.085 z m 65.58798,0 c 0.0312,-0.0506 -0.0699,-0.085 -0.24987,-0.085 -0.16629,0 -0.30236,0.0382 -0.30236,0.085 0,0.0467 0.11243,0.085 0.24986,0.085 0.13742,0 0.27349,-0.0382 0.30237,-0.085 z m -64.44104,-0.16992 c 0,-0.0467 -0.112436,-0.085 -0.249862,-0.085 -0.137422,0 -0.273492,0.0382 -0.30237,0.085 -0.03123,0.0506 0.06991,0.085 0.249866,0.085 0.166296,0 0.302366,-0.0382 0.302366,-0.085 z m 63.16666,0 c -0.0289,-0.0467 -0.18406,-0.085 -0.34485,-0.085 -0.16079,0 -0.29234,0.0382 -0.29234,0.085 0,0.0467 0.15519,0.085 0.34485,0.085 0.20827,0 0.32405,-0.0337 0.29234,-0.085 z m -61.846312,-0.0906 c 0.09267,-0.14994 -0.02032,-0.18811 -0.360605,-0.12183 -0.272095,0.053 -0.295969,0.0736 -0.152636,0.13167 0.243787,0.0987 0.448553,0.0948 0.513241,-0.01 z m 60.515162,0 c 0.0931,-0.004 0.0708,-0.0337 -0.0651,-0.088 -0.23791,-0.095 -0.4679,-0.0361 -0.38465,0.0986 0.0311,0.0503 0.11306,0.0696 0.18225,0.0431 0.0692,-0.0266 0.18957,-0.0507 0.26752,-0.0537 z m -59.133124,-0.1709 c -0.01674,-0.0502 -0.05816,-0.0885 -0.09203,-0.085 -0.03388,0.004 -0.185848,0.007 -0.337712,0.008 -0.209523,8.9e-4 -0.245386,0.0212 -0.148678,0.0837 0.173656,0.11223 0.616333,0.10735 0.578425,-0.006 z m 57.703124,0.007 c 0.0932,-0.0602 0.029,-0.0827 -0.23865,-0.0837 -0.22271,-8.8e-4 -0.34553,0.032 -0.31358,0.0837 0.0666,0.10777 0.38546,0.10777 0.55223,0 z m -56.200064,-0.16992 c 0.03212,-0.0519 -0.09991,-0.085 -0.339832,-0.085 -0.239922,0 -0.371941,0.033 -0.339837,0.085 0.02889,0.0467 0.181806,0.085 0.339837,0.085 0.15803,0 0.310954,-0.0382 0.339832,-0.085 z m 54.798244,0 c 0.0324,-0.0524 -0.11239,-0.085 -0.3773,-0.085 -0.23639,0 -0.4298,0.0382 -0.4298,0.085 0,0.0467 0.16978,0.085 0.3773,0.085 0.20751,0 0.40092,-0.0382 0.4298,-0.085 z M 95.989947,226.0397 c -0.02889,-0.0467 -0.181802,-0.0849 -0.339833,-0.0849 -0.15803,0 -0.310954,0.0382 -0.339832,0.0849 -0.03212,0.052 0.09991,0.085 0.339832,0.085 0.239922,0 0.371941,-0.033 0.339833,-0.085 z m 51.484863,0 c -0.0289,-0.0467 -0.20317,-0.0849 -0.38732,-0.0849 -0.18416,0 -0.33483,0.0382 -0.33483,0.0849 0,0.0467 0.17431,0.085 0.38733,0.085 0.23658,0 0.36689,-0.033 0.33482,-0.085 z m -49.573296,-0.12744 c 0,-0.14068 -0.23235,-0.16334 -0.690286,-0.0673 l -0.286736,0.0601 0.254876,0.0573 c 0.463007,0.10401 0.722146,0.0861 0.722146,-0.0501 z m 47.619256,0.0468 c 0.24469,-0.0581 0.23899,-0.0632 -0.14265,-0.12613 -0.40466,-0.0668 -0.6215,-0.0149 -0.5334,0.12768 0.055,0.0889 0.29751,0.0884 0.67605,-0.001 z m -45.686449,-0.19548 c -0.01948,-0.0584 -0.09912,-0.10301 -0.176992,-0.0991 -0.07788,0.004 -0.304084,0.014 -0.502674,0.0225 -0.506058,0.0217 -0.240867,0.17975 0.304429,0.18148 0.291172,8.8e-4 0.400334,-0.0296 0.375237,-0.1049 z m 43.902319,0.0263 c 0.12529,-0.0501 0.0527,-0.0764 -0.27663,-0.10022 -0.50091,-0.0362 -0.6388,-0.0114 -0.56847,0.10238 0.058,0.0938 0.60853,0.0924 0.8451,-0.002 z m -41.62968,-0.17501 c 0.0332,-0.0537 -0.17581,-0.0845 -0.56845,-0.0837 -0.43229,8.8e-4 -0.58224,0.0263 -0.49353,0.0837 0.16813,0.10865 0.99483,0.10865 1.06198,0 z m 39.50571,0 c 0.0331,-0.0536 -0.1707,-0.085 -0.55222,-0.085 -0.38153,0 -0.58536,0.0314 -0.55224,0.085 0.0289,0.0467 0.27738,0.085 0.55224,0.085 0.27484,0 0.52335,-0.0382 0.55222,-0.085 z m -36.99943,-0.16992 c 0,-0.10898 -0.93583,-0.10898 -1.10446,0 -0.0888,0.0574 0.0595,0.0828 0.48851,0.0837 0.35486,8.8e-4 0.61595,-0.0347 0.61595,-0.0837 z m 34.4082,0 c -0.16911,-0.10928 -1.18942,-0.10928 -1.18942,0 0,0.0495 0.27525,0.0844 0.65843,0.0837 0.45648,-8.9e-4 0.61934,-0.0266 0.53099,-0.0837 z m -31.32397,-0.12744 c -0.0258,-0.13093 -0.25415,-0.15087 -0.86631,-0.0756 l -0.56123,0.069 0.42479,0.0556 c 0.57754,0.0756 1.02302,0.0538 1.00275,-0.049 z m 28.29917,0.0327 c 0.28131,-0.0154 -0.46073,-0.14979 -0.85704,-0.15525 -0.34912,-0.005 -0.50688,0.079 -0.38502,0.2046 0.0337,0.0348 0.28685,0.0401 0.56239,0.0118 0.27553,-0.0283 0.58139,-0.0558 0.67967,-0.0612 z m -23.95504,-0.15124 c 0.0827,-0.13372 -0.1412,-0.15382 -1.18391,-0.10632 -0.69463,0.0316 -0.92475,0.0645 -0.72215,0.10323 0.45434,0.0868 1.85296,0.089 1.90606,0.003 z m 20.22564,-0.009 c 0.23194,-0.059 -0.13416,-0.0851 -1.71334,-0.12213 -0.12459,-0.003 -0.24248,0.0425 -0.26195,0.10089 -0.027,0.0808 0.1745,0.10379 0.84251,0.0961 0.48284,-0.006 0.9926,-0.0392 1.13278,-0.0749 z m -5.86214,-0.16504 c 0.19229,-0.0398 -2.07606,-0.0697 -5.22495,-0.0689 -3.06063,8.8e-4 -5.43097,0.0296 -5.26743,0.064 0.41285,0.0869 10.07411,0.0914 10.49238,0.005 z m 66.78942,42.4257 c 0.81811,-0.3927 1.48739,-1.34814 1.69176,-2.41512 0.12689,-0.66245 0.33784,-3.08913 0.46157,-5.3099 0.11679,-2.09596 0.11577,-11.21879 -0.001,-13.08361 -0.26427,-4.20425 -0.76286,-6.27279 -1.61861,-6.71531 -0.48954,-0.25316 -0.5485,-0.16869 -0.74386,1.06556 -0.35834,2.264 -0.60587,5.71257 -0.99096,13.80576 -0.24889,5.23077 -0.60455,10.09175 -0.81896,11.19326 -0.16209,0.83273 0.10436,1.43639 0.73411,1.66315 0.33388,0.12022 0.74812,0.0546 1.28641,-0.20379 z m -141.586726,-0.0603 c 0.253767,-0.17051 0.292117,-0.24502 0.317024,-0.61595 0.01559,-0.23208 -0.01233,-0.61312 -0.06205,-0.84676 -0.09351,-0.43937 -0.268411,-2.23267 -0.426738,-4.37536 -0.195042,-2.63971 -0.294758,-4.38225 -0.517765,-9.04809 -0.197648,-4.13507 -0.251875,-5.18431 -0.333895,-6.45951 -0.219149,-3.40734 -0.492707,-4.90407 -0.968009,-5.29645 -0.189476,-0.1564 -0.808406,-0.21673 -1.093508,-0.10657 -0.460595,0.17796 -0.682166,0.94951 -0.830071,2.89033 -0.136317,1.78884 -0.107014,15.96566 0.04016,19.4221 0.06764,1.58873 0.145295,3.04151 0.172565,3.22842 0.02726,0.18691 0.06835,0.46399 0.09129,0.61574 0.07488,0.49543 0.907579,0.76274 2.421591,0.77737 0.805288,0.008 0.931334,-0.0118 1.189417,-0.18527 z M 22.864419,239.03236 c -0.08039,-0.0469 -0.187214,-0.23766 -0.237391,-0.42399 -0.180172,-0.66911 -0.05554,-5.42265 0.258273,-9.8506 1.088878,-15.3643 5.708857,-30.21155 13.476611,-43.30988 12.882149,-21.72245 33.707525,-37.69965 58.438618,-44.83404 3.697061,-1.06652 7.93356,-2.04506 10.83221,-2.502 4.68196,-0.73806 13.66699,-1.15458 20.58599,-0.95431 5.64459,0.16339 8.69817,0.42747 12.01912,1.03941 7.30635,1.34635 14.45884,3.47003 21.30107,6.32462 8.53905,3.5625 16.8912,8.53153 24.12864,14.35508 4.77357,3.84102 9.66192,8.62148 13.68575,13.38371 5.61211,6.64194 10.6804,14.69171 14.30828,22.7252 4.66736,10.33534 7.56264,21.65842 8.45079,33.05007 0.20935,2.68508 0.3982,6.60367 0.41151,8.53833 0.0106,1.55018 -0.009,1.875 -0.13094,2.1464 -0.0789,0.17588 -0.2044,0.34315 -0.27884,0.37172 -0.0744,0.0286 -0.60616,-0.12318 -1.18159,-0.3372 -2.88174,-1.07184 -8.55759,-2.44539 -12.10159,-2.92858 -1.10118,-0.15014 -1.83946,-0.28849 -1.87875,-0.35205 -0.0356,-0.0576 -0.0876,-0.3403 -0.11565,-0.62821 -0.028,-0.28792 -0.14748,-1.32634 -0.26548,-2.30761 -0.11799,-0.98127 -0.36854,-3.29427 -0.55678,-5.13999 -0.48777,-4.78288 -0.78569,-6.58699 -1.69057,-10.2375 -2.08336,-8.40485 -5.53461,-16.82196 -9.89323,-24.12822 -4.67632,-7.8388 -11.00617,-15.20107 -18.19373,-21.16116 -7.73425,-6.41342 -16.70227,-11.43122 -26.2097,-14.66492 -6.85139,-2.3303 -12.01063,-3.29183 -20.98475,-3.91094 -2.1455,-0.148 -11.18733,-0.14722 -13.08362,8.9e-4 -3.30953,0.25894 -5.66895,0.58772 -8.75072,1.21939 -10.421684,2.13614 -20.320261,6.22887 -29.268211,12.10144 -7.92472,5.20102 -15.107538,11.95407 -20.897733,19.64738 -6.697926,8.89937 -12.797741,22.70555 -15.039205,34.03935 -0.401676,2.03104 -0.587785,3.38879 -0.931656,6.79668 -0.165019,1.63545 -0.441952,4.19183 -0.615396,5.68085 -0.290107,2.49044 -0.329266,2.71293 -0.488878,2.77776 -0.09543,0.0388 -1.071945,0.19074 -2.170033,0.33774 -4.382143,0.58662 -7.900463,1.43583 -11.417091,2.75575 -1.37439,0.51585 -1.308933,0.49947 -1.515328,0.37918 z M -80.001627,351.3538 c 13.968055,-0.33145 22.996963,-1.06459 27.866394,-2.26274 2.092155,-0.51478 2.704273,-0.93395 3.086399,-2.11353 1.127621,-3.48083 1.623387,-13.16036 1.927675,-37.63662 0.218352,-17.56415 0.267347,-37.85512 0.312061,-129.23637 l 0.0476,-97.291979 -0.584141,-0.171598 c -1.70239,-0.500098 -5.332353,-1.489193 -5.969465,-1.626571 -6.040517,-1.302448 -23.460327,-1.733056 -39.387824,-0.973633 -8.364482,0.398818 -14.562622,1.066074 -17.316442,1.864174 -1.34183,0.388891 -1.72982,0.694963 -2.21032,1.743662 -1.23691,2.699585 -1.77962,10.526263 -2.09426,30.202755 -0.26423,16.52343 -0.2974,27.17263 -0.29783,95.62082 -8.4e-4,68.13336 0.0361,80.40566 0.29762,99.99617 0.33228,24.89133 0.88241,35.83965 1.90964,38.00438 0.36154,0.76188 2.65463,1.93508 4.9941,2.55511 2.66898,0.70736 6.87567,1.17508 12.168737,1.35298 1.91047,0.0642 12.171454,0.046 15.250054,-0.027 z M 229.6297,30.642695 c 36.27555,-0.365473 54.2341,-0.847799 58.87625,-1.581307 1.35316,-0.213804 3.14121,-1.040995 4.01297,-1.856518 1.17871,-1.102661 1.65397,-2.790867 1.89245,-6.722933 0.2361,-3.891702 0.1779,-18.3822688 -0.0871,-21.7069022 -0.19931,-2.5011304 -0.54518,-4.1606074 -1.11202,-5.3358372 -0.54348,-1.1267011 -1.69875,-2.2230932 -3.10465,-2.9464377 -2.01377,-1.0360669 -19.44198,-1.8004349 -53.25644,-2.3357259 -35.16866,-0.556729 -95.11641,-0.669866 -135.84868,-0.256382 -41.633463,0.422632 -68.125135,1.227512 -74.253745,2.2560051 -1.752414,0.2940881 -3.764188,1.7671535 -4.498544,3.2939259 -1.091083,2.2684539 -1.170474,5.3635698 -0.568074,22.146239 0.193721,5.396989 0.361599,9.902961 0.373058,10.013271 0.02461,0.236745 -0.08107,0.195634 4.353727,1.693637 2.643136,0.892811 3.191193,1.05009 4.035529,1.158125 8.759111,1.120748 50.158957,1.952192 114.014329,2.28979 10.55136,0.05579 77.29417,-0.0296 85.17092,-0.10895 z"
       id="path3506"
       inkscape:export-filename="/home/jini/ws/images/ty3.png"
       inkscape:export-xdpi="96"
       inkscape:export-ydpi="96" />
  </g>
</svg>
